# Blender v2.79 (sub 0) OBJ File: 'BaseCircleRings.blend'
# www.blender.org
mtllib UranusRing.mtl
o Circle_Circle.001
v 0.000000 0.000000 -32.000000
v -6.242890 0.000000 -31.385128
v -12.245871 0.000000 -29.564144
v -17.778248 0.000000 -26.607027
v -22.627417 0.000000 -22.627417
v -26.607029 0.000000 -17.778246
v -29.564144 0.000000 -12.245870
v -31.385128 0.000000 -6.242891
v -32.000000 0.000000 -0.000002
v -31.385130 0.000000 6.242887
v -29.564146 0.000000 12.245865
v -26.607029 0.000000 17.778246
v -22.627417 0.000000 22.627417
v -17.778246 0.000000 26.607029
v -12.245865 0.000000 29.564148
v -6.242883 0.000000 31.385130
v 0.000010 0.000000 32.000000
v 6.242903 0.000000 31.385126
v 12.245884 0.000000 29.564138
v 17.778263 0.000000 26.607018
v 22.627432 0.000000 22.627403
v 26.607040 0.000000 17.778229
v 29.564156 0.000000 12.245846
v 31.385134 0.000000 6.242863
v 32.000000 0.000000 -0.000031
v 31.385122 0.000000 -6.242923
v 29.564131 0.000000 -12.245903
v 26.607006 0.000000 -17.778280
v 22.627388 0.000000 -22.627445
v 17.778212 0.000000 -26.607052
v 12.245827 0.000000 -29.564163
v 6.242842 0.000000 -31.385138
v -0.000001 0.000000 -19.942869
v -3.890661 0.000000 -19.559671
v -7.631806 0.000000 -18.424809
v -11.079664 0.000000 -16.581890
v -14.101736 0.000000 -14.101739
v -16.581888 0.000000 -11.079665
v -18.424807 0.000000 -7.631807
v -19.559669 0.000000 -3.890664
v -19.942867 0.000000 -0.000005
v -19.559671 0.000000 3.890654
v -18.424807 0.000000 7.631798
v -16.581888 0.000000 11.079658
v -14.101736 0.000000 14.101731
v -11.079663 0.000000 16.581884
v -7.631803 0.000000 18.424803
v -3.890657 0.000000 19.559666
v 0.000005 0.000000 19.942860
v 3.890667 0.000000 19.559664
v 7.631812 0.000000 18.424797
v 11.079671 0.000000 16.581877
v 14.101743 0.000000 14.101723
v 16.581894 0.000000 11.079647
v 18.424810 0.000000 7.631786
v 19.559669 0.000000 3.890639
v 19.942863 0.000000 -0.000023
v 19.559664 0.000000 -3.890684
v 18.424795 0.000000 -7.631828
v 16.581871 0.000000 -11.079686
v 14.101716 0.000000 -14.101756
v 11.079638 0.000000 -16.581905
v 7.631776 0.000000 -18.424820
v 3.890629 0.000000 -19.559677
vt 1.000000 0.000000
vt 0.000000 1.000000
vt 0.000000 0.000000
vt 1.000000 0.000000
vt 0.000000 1.000000
vt 0.000000 0.000000
vt 0.000000 0.000000
vt 1.000000 1.000000
vt 0.000000 1.000000
vt 1.000000 0.000000
vt 0.000000 1.000000
vt 0.000000 0.000000
vt 0.000000 0.000000
vt 1.000000 1.000000
vt 0.000000 1.000000
vt 0.000000 0.000000
vt 1.000000 1.000000
vt 0.000000 1.000000
vt 1.000000 0.000000
vt 0.000000 1.000000
vt 0.000000 0.000000
vt 1.000000 0.000000
vt 0.000000 1.000000
vt 0.000000 0.000000
vt 0.000000 0.000000
vt 1.000000 1.000000
vt 0.000000 1.000000
vt 1.000000 0.000000
vt 0.000000 1.000000
vt 0.000000 0.000000
vt 0.000000 0.000000
vt 1.000000 1.000000
vt 0.000000 1.000000
vt 1.000000 0.000000
vt 0.000000 1.000000
vt 0.000000 0.000000
vt 1.000000 0.000000
vt 0.000000 1.000000
vt 0.000000 0.000000
vt 1.000000 0.000000
vt 0.000000 1.000000
vt 0.000000 0.000000
vt 1.000000 0.000000
vt 0.000000 1.000000
vt 0.000000 0.000000
vt 1.000000 0.000000
vt 0.000000 1.000000
vt 0.000000 0.000000
vt 1.000000 0.000000
vt 0.000000 1.000000
vt 0.000000 0.000000
vt 1.000000 0.000000
vt 0.000000 1.000000
vt 0.000000 0.000000
vt 1.000000 0.000000
vt 0.000000 1.000000
vt 0.000000 0.000000
vt 1.000000 0.000000
vt 0.000000 1.000000
vt 0.000000 0.000000
vt 1.000000 0.000000
vt 0.000000 1.000000
vt 0.000000 0.000000
vt 1.000000 0.000000
vt 0.000000 1.000000
vt 0.000000 0.000000
vt 1.000000 0.000000
vt 0.000000 1.000000
vt 0.000000 0.000000
vt 1.000000 0.000000
vt 0.000000 1.000000
vt 0.000000 0.000000
vt 0.000000 0.000000
vt 1.000000 1.000000
vt 0.000000 1.000000
vt 1.000000 0.000000
vt 0.000000 1.000000
vt 0.000000 0.000000
vt 1.000000 0.000000
vt 0.000000 1.000000
vt 0.000000 0.000000
vt 1.000000 0.000000
vt 0.000000 1.000000
vt 0.000000 0.000000
vt 1.000000 0.000000
vt 0.000000 1.000000
vt 0.000000 0.000000
vt 1.000000 0.000000
vt 0.000000 1.000000
vt 0.000000 0.000000
vt 1.000000 0.000000
vt 0.000000 1.000000
vt 0.000000 0.000000
vt 1.000000 0.000000
vt 0.000000 1.000000
vt 0.000000 0.000000
vt 1.000000 1.000000
vt 1.000000 1.000000
vt 1.000000 0.000000
vt 1.000000 1.000000
vt 1.000000 0.000000
vt 1.000000 0.000000
vt 1.000000 1.000000
vt 1.000000 1.000000
vt 1.000000 0.000000
vt 1.000000 1.000000
vt 1.000000 0.000000
vt 1.000000 1.000000
vt 1.000000 1.000000
vt 1.000000 1.000000
vt 1.000000 1.000000
vt 1.000000 1.000000
vt 1.000000 1.000000
vt 1.000000 1.000000
vt 1.000000 1.000000
vt 1.000000 1.000000
vt 1.000000 1.000000
vt 1.000000 1.000000
vt 1.000000 1.000000
vt 1.000000 1.000000
vt 1.000000 0.000000
vt 1.000000 1.000000
vt 1.000000 1.000000
vt 1.000000 1.000000
vt 1.000000 1.000000
vt 1.000000 1.000000
vt 1.000000 1.000000
vt 1.000000 1.000000
vn 0.0000 -1.0000 0.0000
usemtl Material.001
s off
f 21/1/1 54/2/1 22/3/1
f 8/4/1 41/5/1 9/6/1
f 23/7/1 54/8/1 55/9/1
f 9/10/1 42/11/1 10/12/1
f 24/13/1 55/14/1 56/15/1
f 11/16/1 42/17/1 43/18/1
f 24/19/1 57/20/1 25/21/1
f 11/22/1 44/23/1 12/24/1
f 26/25/1 57/26/1 58/27/1
f 12/28/1 45/29/1 13/30/1
f 27/31/1 58/32/1 59/33/1
f 13/34/1 46/35/1 14/36/1
f 27/37/1 60/38/1 28/39/1
f 14/40/1 47/41/1 15/42/1
f 1/43/1 34/44/1 2/45/1
f 28/46/1 61/47/1 29/48/1
f 15/49/1 48/50/1 16/51/1
f 2/52/1 35/53/1 3/54/1
f 29/55/1 62/56/1 30/57/1
f 16/58/1 49/59/1 17/60/1
f 3/61/1 36/62/1 4/63/1
f 30/64/1 63/65/1 31/66/1
f 17/67/1 50/68/1 18/69/1
f 4/70/1 37/71/1 5/72/1
f 32/73/1 63/74/1 64/75/1
f 18/76/1 51/77/1 19/78/1
f 5/79/1 38/80/1 6/81/1
f 32/82/1 33/83/1 1/84/1
f 19/85/1 52/86/1 20/87/1
f 6/88/1 39/89/1 7/90/1
f 20/91/1 53/92/1 21/93/1
f 7/94/1 40/95/1 8/96/1
f 21/1/1 53/97/1 54/2/1
f 8/4/1 40/98/1 41/5/1
f 23/7/1 22/99/1 54/8/1
f 9/10/1 41/100/1 42/11/1
f 24/13/1 23/101/1 55/14/1
f 11/16/1 10/102/1 42/17/1
f 24/19/1 56/103/1 57/20/1
f 11/22/1 43/104/1 44/23/1
f 26/25/1 25/105/1 57/26/1
f 12/28/1 44/106/1 45/29/1
f 27/31/1 26/107/1 58/32/1
f 13/34/1 45/108/1 46/35/1
f 27/37/1 59/109/1 60/38/1
f 14/40/1 46/110/1 47/41/1
f 1/43/1 33/111/1 34/44/1
f 28/46/1 60/112/1 61/47/1
f 15/49/1 47/113/1 48/50/1
f 2/52/1 34/114/1 35/53/1
f 29/55/1 61/115/1 62/56/1
f 16/58/1 48/116/1 49/59/1
f 3/61/1 35/117/1 36/62/1
f 30/64/1 62/118/1 63/65/1
f 17/67/1 49/119/1 50/68/1
f 4/70/1 36/120/1 37/71/1
f 32/73/1 31/121/1 63/74/1
f 18/76/1 50/122/1 51/77/1
f 5/79/1 37/123/1 38/80/1
f 32/82/1 64/124/1 33/83/1
f 19/85/1 51/125/1 52/86/1
f 6/88/1 38/126/1 39/89/1
f 20/91/1 52/127/1 53/92/1
f 7/94/1 39/128/1 40/95/1
