# This file uses centimeters as units for non-parametric coordinates.

mtllib Backboard.mtl
g default
v -2.580025 -2.500000 0.250025
v -2.580025 -2.250025 0.500000
v -2.830000 -2.250025 0.250025
v 2.170000 -2.250025 0.250025
v 1.920025 -2.250025 0.500000
v 1.920025 -2.500000 0.250025
v -2.830000 2.250025 0.250025
v -2.580025 2.250025 0.500000
v -2.580025 2.500000 0.250025
v 1.920025 2.500000 0.250025
v 1.920025 2.250025 0.500000
v 2.170000 2.250025 0.250025
v -2.830000 2.250025 -0.250025
v -2.580025 2.500000 -0.250025
v -2.580025 2.250025 -0.500000
v 1.920025 2.250025 -0.500000
v 1.920025 2.500000 -0.250025
v 2.170000 2.250025 -0.250025
v -2.830000 -2.250025 -0.250025
v -2.580025 -2.250025 -0.500000
v -2.580025 -2.500000 -0.250025
v 1.920025 -2.500000 -0.250025
v 1.920025 -2.250025 -0.500000
v 2.170000 -2.250025 -0.250025
v 1.666320 2.218109 0.221833
v -2.326320 2.218109 0.221833
v 1.666320 2.218109 -0.221833
v -2.326320 2.218109 -0.221833
v 1.666320 -2.218109 -0.221833
v -2.326320 -2.218109 -0.221833
v 1.666320 -2.218109 0.221833
v -2.326320 -2.218109 0.221833
v 1.888109 -1.996320 -0.221833
v 1.888109 -1.996320 0.221833
v 1.888109 1.996320 -0.221833
v 1.888109 1.996320 0.221833
v -2.548109 -1.996320 0.221833
v -2.548109 -1.996320 -0.221833
v -2.548109 1.996320 0.221833
v -2.548109 1.996320 -0.221833
vt 0.587439 0.051976
vt 0.631468 0.051976
vt 0.631468 0.448197
vt 0.587439 0.448197
vt 0.584642 0.026799
vt 0.634265 0.026799
vt 0.634265 0.473374
vt 0.584642 0.473374
vt 0.584642 0.001992
vt 0.634265 0.001992
vt 0.584642 0.498181
vt 0.634265 0.498181
vt 0.559835 0.026799
vt 0.659072 0.026799
vt 0.559835 0.473374
vt 0.659072 0.473374
vt 0.029421 0.051976
vt 0.073449 0.051976
vt 0.073449 0.448197
vt 0.029421 0.448197
vt 0.026623 0.026799
vt 0.076247 0.026799
vt 0.076247 0.473374
vt 0.026623 0.473374
vt 0.076247 0.001992
vt 0.026623 0.001992
vt 0.076247 0.498181
vt 0.026623 0.498181
vt 0.101054 0.026799
vt 0.001816 0.026799
vt 0.101054 0.473374
vt 0.001816 0.473374
vt 0.410739 0.923217
vt 0.410739 0.526996
vt 0.454767 0.526996
vt 0.454767 0.923217
vt 0.407941 0.501819
vt 0.457565 0.501819
vt 0.457565 0.948394
vt 0.407941 0.948394
vt 0.355523 0.923217
vt 0.355523 0.526996
vt 0.399551 0.526996
vt 0.399551 0.923217
vt 0.352725 0.501819
vt 0.402349 0.501819
vt 0.402349 0.948394
vt 0.352725 0.948394
vt 0.106811 0.026799
vt 0.553386 0.026799
vt 0.553386 0.473374
vt 0.106811 0.473374
vt 0.106811 0.001992
vt 0.553386 0.001992
vt 0.106811 0.498181
vt 0.553386 0.498181
vt 0.463158 0.526626
vt 0.909733 0.526626
vt 0.909733 0.973201
vt 0.463158 0.973201
vt 0.463158 0.501819
vt 0.909733 0.501819
vt 0.463158 0.998008
vt 0.909733 0.998008
vt 0.319158 0.948394
vt 0.319158 0.501819
vt 0.347132 0.526996
vt 0.347132 0.923217
vt 0.313565 0.501819
vt 0.313565 0.948394
vt 0.285591 0.923217
vt 0.285591 0.526996
vt 0.252024 0.948394
vt 0.252024 0.501819
vt 0.279999 0.526996
vt 0.279999 0.923217
vt 0.246432 0.501819
vt 0.246432 0.948394
vt 0.218458 0.923217
vt 0.218458 0.526996
vt 0.212865 0.501819
vt 0.212865 0.948394
vt 0.184891 0.923217
vt 0.184891 0.526996
vt 0.179298 0.501819
vt 0.179298 0.948394
vt 0.151324 0.923217
vt 0.151324 0.526996
vt 0.117757 0.948394
vt 0.117757 0.501819
vt 0.145731 0.526996
vt 0.145731 0.923217
vt 0.084190 0.948394
vt 0.084190 0.501819
vt 0.112165 0.526996
vt 0.112165 0.923217
vn -0.707107 -0.707106 0.000000
vn -0.707107 -0.707107 0.000000
vn -0.707107 -0.707107 0.000000
vn -0.707106 -0.707107 0.000000
vn 0.000000 -0.707107 0.707106
vn 0.000000 -0.707107 0.707106
vn 0.000000 -0.707107 0.707107
vn 0.000000 -0.707106 0.707107
vn -0.707107 0.000000 0.707107
vn -0.707107 0.000000 0.707107
vn -0.707107 0.000000 0.707107
vn -0.707107 0.000000 0.707107
vn 0.707106 -0.707107 0.000000
vn 0.707107 -0.707107 0.000000
vn 0.707107 -0.707107 0.000000
vn 0.707107 -0.707106 0.000000
vn 0.707107 0.000000 0.707107
vn 0.707107 0.000000 0.707107
vn 0.707107 0.000000 0.707107
vn 0.707107 0.000000 0.707107
vn -0.707106 0.707107 0.000000
vn -0.707107 0.707107 0.000000
vn -0.707107 0.707107 0.000000
vn -0.707107 0.707106 0.000000
vn 0.000000 0.707106 0.707107
vn 0.000000 0.707107 0.707107
vn 0.000000 0.707107 0.707106
vn 0.000000 0.707107 0.707106
vn 0.707107 0.707106 0.000000
vn 0.707107 0.707107 0.000000
vn 0.707107 0.707107 0.000000
vn 0.707106 0.707107 0.000000
vn -0.707107 0.000000 -0.707107
vn -0.707107 0.000000 -0.707107
vn -0.707107 0.000000 -0.707107
vn -0.707107 0.000000 -0.707107
vn 0.000000 0.707107 -0.707106
vn 0.000000 0.707107 -0.707106
vn 0.000000 0.707107 -0.707107
vn 0.000000 0.707106 -0.707107
vn 0.707107 0.000000 -0.707107
vn 0.707107 0.000000 -0.707107
vn 0.707107 0.000000 -0.707107
vn 0.707107 0.000000 -0.707107
vn 0.000000 -0.707106 -0.707107
vn 0.000000 -0.707107 -0.707107
vn 0.000000 -0.707107 -0.707106
vn 0.000000 -0.707107 -0.707106
vn 0.000000 0.000000 1.000000
vn 0.000000 0.000000 1.000000
vn 0.000000 0.000000 1.000000
vn 0.000000 0.000000 1.000000
vn 0.000000 1.000000 0.000000
vn 0.000000 1.000000 0.000000
vn 0.000000 1.000000 0.000000
vn 0.000000 1.000000 0.000000
vn 0.000000 0.000000 -1.000000
vn 0.000000 0.000000 -1.000000
vn 0.000000 0.000000 -1.000000
vn 0.000000 0.000000 -1.000000
vn 0.000000 -1.000000 0.000000
vn 0.000000 -1.000000 0.000000
vn 0.000000 -1.000000 0.000000
vn 0.000000 -1.000000 0.000000
vn 1.000000 0.000000 0.000000
vn 1.000000 0.000000 0.000000
vn 1.000000 0.000000 0.000000
vn 1.000000 0.000000 0.000000
vn -1.000000 0.000000 0.000000
vn -1.000000 0.000000 0.000000
vn -1.000000 0.000000 0.000000
vn -1.000000 0.000000 0.000000
vn -0.577351 -0.577351 0.577349
vn -0.577351 -0.577351 0.577349
vn -0.577351 -0.577351 0.577349
vn 0.577351 -0.577351 0.577349
vn 0.577351 -0.577351 0.577349
vn 0.577351 -0.577351 0.577349
vn -0.577351 0.577351 0.577349
vn -0.577351 0.577351 0.577349
vn -0.577351 0.577351 0.577349
vn 0.577351 0.577351 0.577349
vn 0.577351 0.577351 0.577349
vn 0.577351 0.577351 0.577349
vn -0.577351 0.577351 -0.577349
vn -0.577351 0.577351 -0.577349
vn -0.577351 0.577351 -0.577349
vn 0.577351 0.577351 -0.577349
vn 0.577351 0.577351 -0.577349
vn 0.577351 0.577351 -0.577349
vn -0.577351 -0.577351 -0.577349
vn -0.577351 -0.577351 -0.577349
vn -0.577351 -0.577351 -0.577349
vn 0.577351 -0.577351 -0.577349
vn 0.577351 -0.577351 -0.577349
vn 0.577351 -0.577351 -0.577349
vn 0.000000 0.099514 -0.995036
vn 0.000000 0.099514 -0.995036
vn 0.000000 0.099514 -0.995036
vn 0.000000 0.099514 -0.995036
vn -0.743290 0.668969 0.000000
vn -0.743290 0.668969 0.000000
vn -0.743290 0.668969 0.000000
vn -0.743290 0.668969 0.000000
vn 0.000000 0.099514 0.995036
vn 0.000000 0.099514 0.995036
vn 0.000000 0.099514 0.995036
vn 0.000000 0.099514 0.995036
vn 0.743290 0.668969 0.000000
vn 0.743290 0.668969 0.000000
vn 0.743290 0.668969 0.000000
vn 0.743290 0.668969 0.000000
vn 0.000000 -0.099514 0.995036
vn 0.000000 -0.099514 0.995036
vn 0.000000 -0.099514 0.995036
vn 0.000000 -0.099514 0.995036
vn -0.743290 -0.668969 0.000000
vn -0.743290 -0.668969 0.000000
vn -0.743290 -0.668969 0.000000
vn -0.743290 -0.668969 0.000000
vn 0.000000 -0.099514 -0.995036
vn 0.000000 -0.099514 -0.995036
vn 0.000000 -0.099514 -0.995036
vn 0.000000 -0.099514 -0.995036
vn 0.743290 -0.668969 0.000000
vn 0.743290 -0.668969 0.000000
vn 0.743290 -0.668969 0.000000
vn 0.743290 -0.668969 0.000000
vn 0.668968 0.743291 0.000000
vn 0.668969 0.743291 0.000000
vn 0.668969 0.743291 0.000000
vn 0.668969 0.743290 0.000000
vn 0.099514 0.000000 0.995036
vn 0.099514 0.000000 0.995036
vn 0.099514 0.000000 0.995036
vn 0.099514 0.000000 0.995036
vn 0.668968 -0.743291 0.000000
vn 0.668969 -0.743291 0.000000
vn 0.668969 -0.743291 0.000000
vn 0.668969 -0.743290 0.000000
vn 0.099514 0.000000 -0.995036
vn 0.099514 0.000000 -0.995036
vn 0.099514 0.000000 -0.995036
vn 0.099514 0.000000 -0.995036
vn -0.668968 0.743291 0.000000
vn -0.668969 0.743291 0.000000
vn -0.668969 0.743291 0.000000
vn -0.668969 0.743290 0.000000
vn -0.099514 0.000000 -0.995036
vn -0.099514 0.000000 -0.995036
vn -0.099514 0.000000 -0.995036
vn -0.099514 0.000000 -0.995036
vn -0.668968 -0.743291 0.000000
vn -0.668969 -0.743291 0.000000
vn -0.668969 -0.743291 0.000000
vn -0.668969 -0.743290 0.000000
vn -0.099514 0.000000 0.995036
vn -0.099514 0.000000 0.995036
vn -0.099514 0.000000 0.995036
vn -0.099514 0.000000 0.995036
s 1
g pCube1
usemtl blinn2SG
f 1/25/1 3/22/2 21/26/3
f 21/26/3 3/22/2 19/21/4
s 2
f 2/49/5 1/53/6 5/50/7
f 5/50/7 1/53/6 6/54/8
s 3
f 3/22/9 2/29/10 7/23/11
f 7/23/11 2/29/10 8/31/12
s 4
f 4/5/13 6/9/14 24/6/15
f 24/6/15 6/9/14 22/10/16
s 5
f 5/13/17 4/5/18 11/15/19
f 11/15/19 4/5/18 12/8/20
s 6
f 7/23/21 9/27/22 13/24/23
f 13/24/23 9/27/22 14/28/24
s 7
f 9/55/25 8/52/26 10/56/27
f 10/56/27 8/52/26 11/51/28
s 8
f 10/11/29 12/8/30 17/12/31
f 17/12/31 12/8/30 18/7/32
s 9
f 13/24/33 15/32/34 19/21/35
f 19/21/35 15/32/34 20/30/36
s 10
f 15/57/37 14/61/38 16/58/39
f 16/58/39 14/61/38 17/62/40
s 11
f 16/16/41 18/7/42 23/14/43
f 23/14/43 18/7/42 24/6/44
s 12
f 21/63/45 20/60/46 22/64/47
f 22/64/47 20/60/46 23/59/48
s 13
f 2/49/49 5/50/50 8/52/51
f 8/52/51 5/50/50 11/51/52
s 14
f 26/33/53 25/34/54 28/36/55
f 28/36/55 25/34/54 27/35/56
s 15
f 15/57/57 16/58/58 20/60/59
f 20/60/59 16/58/58 23/59/60
s 16
f 30/41/61 29/42/62 32/44/63
f 32/44/63 29/42/62 31/43/64
s 17
f 34/1/65 33/2/66 36/4/67
f 36/4/67 33/2/66 35/3/68
s 18
f 38/17/69 37/18/70 40/20/71
f 40/20/71 37/18/70 39/19/72
s off
f 1/25/73 2/29/74 3/22/75
f 4/5/76 5/13/77 6/9/78
f 7/23/79 8/31/80 9/27/81
f 10/11/82 11/15/83 12/8/84
f 13/24/85 14/28/86 15/32/87
f 16/16/88 17/12/89 18/7/90
f 19/21/91 20/30/92 21/26/93
f 22/10/94 23/14/95 24/6/96
s 19
f 9/65/97 10/66/98 26/68/99
f 26/68/99 10/66/98 25/67/100
s 20
f 10/37/101 17/38/102 25/34/103
f 25/34/103 17/38/102 27/35/104
s 21
f 17/69/105 14/70/106 27/72/107
f 27/72/107 14/70/106 28/71/108
s 22
f 14/39/109 9/40/110 28/36/111
f 28/36/111 9/40/110 26/33/112
s 23
f 21/73/113 22/74/114 30/76/115
f 30/76/115 22/74/114 29/75/116
s 24
f 22/45/117 6/46/118 29/42/119
f 29/42/119 6/46/118 31/43/120
s 25
f 6/77/121 1/78/122 31/80/123
f 31/80/123 1/78/122 32/79/124
s 26
f 1/47/125 21/48/126 32/44/127
f 32/44/127 21/48/126 30/41/128
s 27
f 4/5/129 24/6/130 34/1/131
f 34/1/131 24/6/130 33/2/132
s 28
f 24/81/133 18/82/134 33/84/135
f 33/84/135 18/82/134 35/83/136
s 29
f 18/7/137 12/8/138 35/3/139
f 35/3/139 12/8/138 36/4/140
s 30
f 12/85/141 4/86/142 36/88/143
f 36/88/143 4/86/142 34/87/144
s 31
f 19/21/145 3/22/146 38/17/147
f 38/17/147 3/22/146 37/18/148
s 32
f 3/89/149 7/90/150 37/92/151
f 37/92/151 7/90/150 39/91/152
s 33
f 7/23/153 13/24/154 39/19/155
f 39/19/155 13/24/154 40/20/156
s 34
f 13/93/157 19/94/158 40/96/159
f 40/96/159 19/94/158 38/95/160
g default
v -2.580025 -2.500000 0.250025
v -2.580025 -2.250025 0.500000
v -2.830000 -2.250025 0.250025
v 2.170000 -2.250025 0.250025
v 1.920025 -2.250025 0.500000
v 1.920025 -2.500000 0.250025
v -2.830000 2.250025 0.250025
v -2.580025 2.250025 0.500000
v -2.580025 2.500000 0.250025
v 1.920025 2.500000 0.250025
v 1.920025 2.250025 0.500000
v 2.170000 2.250025 0.250025
v -2.830000 2.250025 -0.250025
v -2.580025 2.500000 -0.250025
v -2.580025 2.250025 -0.500000
v 1.920025 2.250025 -0.500000
v 1.920025 2.500000 -0.250025
v 2.170000 2.250025 -0.250025
v -2.830000 -2.250025 -0.250025
v -2.580025 -2.250025 -0.500000
v -2.580025 -2.500000 -0.250025
v 1.920025 -2.500000 -0.250025
v 1.920025 -2.250025 -0.500000
v 2.170000 -2.250025 -0.250025
v 1.666320 2.218109 0.221833
v -2.326320 2.218109 0.221833
v 1.666320 2.218109 -0.221833
v -2.326320 2.218109 -0.221833
v 1.666320 -2.218109 -0.221833
v -2.326320 -2.218109 -0.221833
v 1.666320 -2.218109 0.221833
v -2.326320 -2.218109 0.221833
v 1.888109 -1.996320 -0.221833
v 1.888109 -1.996320 0.221833
v 1.888109 1.996320 -0.221833
v 1.888109 1.996320 0.221833
v -2.548109 -1.996320 0.221833
v -2.548109 -1.996320 -0.221833
v -2.548109 1.996320 0.221833
v -2.548109 1.996320 -0.221833
vt 0.587439 0.051976
vt 0.631468 0.051976
vt 0.631468 0.448197
vt 0.587439 0.448197
vt 0.584642 0.026799
vt 0.634265 0.026799
vt 0.634265 0.473374
vt 0.584642 0.473374
vt 0.584642 0.001992
vt 0.634265 0.001992
vt 0.584642 0.498181
vt 0.634265 0.498181
vt 0.559835 0.026799
vt 0.659072 0.026799
vt 0.559835 0.473374
vt 0.659072 0.473374
vt 0.029421 0.051976
vt 0.073449 0.051976
vt 0.073449 0.448197
vt 0.029421 0.448197
vt 0.026623 0.026799
vt 0.076247 0.026799
vt 0.076247 0.473374
vt 0.026623 0.473374
vt 0.076247 0.001992
vt 0.026623 0.001992
vt 0.076247 0.498181
vt 0.026623 0.498181
vt 0.101054 0.026799
vt 0.001816 0.026799
vt 0.101054 0.473374
vt 0.001816 0.473374
vt 0.410739 0.923217
vt 0.410739 0.526996
vt 0.454767 0.526996
vt 0.454767 0.923217
vt 0.407941 0.501819
vt 0.457565 0.501819
vt 0.457565 0.948394
vt 0.407941 0.948394
vt 0.355523 0.923217
vt 0.355523 0.526996
vt 0.399551 0.526996
vt 0.399551 0.923217
vt 0.352725 0.501819
vt 0.402349 0.501819
vt 0.402349 0.948394
vt 0.352725 0.948394
vt 0.106811 0.026799
vt 0.553386 0.026799
vt 0.553386 0.473374
vt 0.106811 0.473374
vt 0.106811 0.001992
vt 0.553386 0.001992
vt 0.106811 0.498181
vt 0.553386 0.498181
vt 0.463158 0.526626
vt 0.909733 0.526626
vt 0.909733 0.973201
vt 0.463158 0.973201
vt 0.463158 0.501819
vt 0.909733 0.501819
vt 0.463158 0.998008
vt 0.909733 0.998008
vt 0.319158 0.948394
vt 0.319158 0.501819
vt 0.347132 0.526996
vt 0.347132 0.923217
vt 0.313565 0.501819
vt 0.313565 0.948394
vt 0.285591 0.923217
vt 0.285591 0.526996
vt 0.252024 0.948394
vt 0.252024 0.501819
vt 0.279999 0.526996
vt 0.279999 0.923217
vt 0.246432 0.501819
vt 0.246432 0.948394
vt 0.218458 0.923217
vt 0.218458 0.526996
vt 0.212865 0.501819
vt 0.212865 0.948394
vt 0.184891 0.923217
vt 0.184891 0.526996
vt 0.179298 0.501819
vt 0.179298 0.948394
vt 0.151324 0.923217
vt 0.151324 0.526996
vt 0.117757 0.948394
vt 0.117757 0.501819
vt 0.145731 0.526996
vt 0.145731 0.923217
vt 0.084190 0.948394
vt 0.084190 0.501819
vt 0.112165 0.526996
vt 0.112165 0.923217
vn -0.707107 -0.707106 0.000000
vn -0.707107 -0.707107 0.000000
vn -0.707107 -0.707107 0.000000
vn -0.707106 -0.707107 0.000000
vn 0.000000 -0.707107 0.707106
vn 0.000000 -0.707107 0.707106
vn 0.000000 -0.707107 0.707107
vn 0.000000 -0.707106 0.707107
vn -0.707107 0.000000 0.707107
vn -0.707107 0.000000 0.707107
vn -0.707107 0.000000 0.707107
vn -0.707107 0.000000 0.707107
vn 0.707106 -0.707107 0.000000
vn 0.707107 -0.707107 0.000000
vn 0.707107 -0.707107 0.000000
vn 0.707107 -0.707106 0.000000
vn 0.707107 0.000000 0.707107
vn 0.707107 0.000000 0.707107
vn 0.707107 0.000000 0.707107
vn 0.707107 0.000000 0.707107
vn -0.707106 0.707107 0.000000
vn -0.707107 0.707107 0.000000
vn -0.707107 0.707107 0.000000
vn -0.707107 0.707106 0.000000
vn 0.000000 0.707106 0.707107
vn 0.000000 0.707107 0.707107
vn 0.000000 0.707107 0.707106
vn 0.000000 0.707107 0.707106
vn 0.707107 0.707106 0.000000
vn 0.707107 0.707107 0.000000
vn 0.707107 0.707107 0.000000
vn 0.707106 0.707107 0.000000
vn -0.707107 0.000000 -0.707107
vn -0.707107 0.000000 -0.707107
vn -0.707107 0.000000 -0.707107
vn -0.707107 0.000000 -0.707107
vn 0.000000 0.707107 -0.707106
vn 0.000000 0.707107 -0.707106
vn 0.000000 0.707107 -0.707107
vn 0.000000 0.707106 -0.707107
vn 0.707107 0.000000 -0.707107
vn 0.707107 0.000000 -0.707107
vn 0.707107 0.000000 -0.707107
vn 0.707107 0.000000 -0.707107
vn 0.000000 -0.707106 -0.707107
vn 0.000000 -0.707107 -0.707107
vn 0.000000 -0.707107 -0.707106
vn 0.000000 -0.707107 -0.707106
vn 0.000000 0.000000 1.000000
vn 0.000000 0.000000 1.000000
vn 0.000000 0.000000 1.000000
vn 0.000000 0.000000 1.000000
vn 0.000000 1.000000 0.000000
vn 0.000000 1.000000 0.000000
vn 0.000000 1.000000 0.000000
vn 0.000000 1.000000 0.000000
vn 0.000000 0.000000 -1.000000
vn 0.000000 0.000000 -1.000000
vn 0.000000 0.000000 -1.000000
vn 0.000000 0.000000 -1.000000
vn 0.000000 -1.000000 0.000000
vn 0.000000 -1.000000 0.000000
vn 0.000000 -1.000000 0.000000
vn 0.000000 -1.000000 0.000000
vn 1.000000 0.000000 0.000000
vn 1.000000 0.000000 0.000000
vn 1.000000 0.000000 0.000000
vn 1.000000 0.000000 0.000000
vn -1.000000 0.000000 0.000000
vn -1.000000 0.000000 0.000000
vn -1.000000 0.000000 0.000000
vn -1.000000 0.000000 0.000000
vn -0.577351 -0.577351 0.577349
vn -0.577351 -0.577351 0.577349
vn -0.577351 -0.577351 0.577349
vn 0.577351 -0.577351 0.577349
vn 0.577351 -0.577351 0.577349
vn 0.577351 -0.577351 0.577349
vn -0.577351 0.577351 0.577349
vn -0.577351 0.577351 0.577349
vn -0.577351 0.577351 0.577349
vn 0.577351 0.577351 0.577349
vn 0.577351 0.577351 0.577349
vn 0.577351 0.577351 0.577349
vn -0.577351 0.577351 -0.577349
vn -0.577351 0.577351 -0.577349
vn -0.577351 0.577351 -0.577349
vn 0.577351 0.577351 -0.577349
vn 0.577351 0.577351 -0.577349
vn 0.577351 0.577351 -0.577349
vn -0.577351 -0.577351 -0.577349
vn -0.577351 -0.577351 -0.577349
vn -0.577351 -0.577351 -0.577349
vn 0.577351 -0.577351 -0.577349
vn 0.577351 -0.577351 -0.577349
vn 0.577351 -0.577351 -0.577349
vn 0.000000 0.099514 -0.995036
vn 0.000000 0.099514 -0.995036
vn 0.000000 0.099514 -0.995036
vn 0.000000 0.099514 -0.995036
vn -0.743290 0.668969 0.000000
vn -0.743290 0.668969 0.000000
vn -0.743290 0.668969 0.000000
vn -0.743290 0.668969 0.000000
vn 0.000000 0.099514 0.995036
vn 0.000000 0.099514 0.995036
vn 0.000000 0.099514 0.995036
vn 0.000000 0.099514 0.995036
vn 0.743290 0.668969 0.000000
vn 0.743290 0.668969 0.000000
vn 0.743290 0.668969 0.000000
vn 0.743290 0.668969 0.000000
vn 0.000000 -0.099514 0.995036
vn 0.000000 -0.099514 0.995036
vn 0.000000 -0.099514 0.995036
vn 0.000000 -0.099514 0.995036
vn -0.743290 -0.668969 0.000000
vn -0.743290 -0.668969 0.000000
vn -0.743290 -0.668969 0.000000
vn -0.743290 -0.668969 0.000000
vn 0.000000 -0.099514 -0.995036
vn 0.000000 -0.099514 -0.995036
vn 0.000000 -0.099514 -0.995036
vn 0.000000 -0.099514 -0.995036
vn 0.743290 -0.668969 0.000000
vn 0.743290 -0.668969 0.000000
vn 0.743290 -0.668969 0.000000
vn 0.743290 -0.668969 0.000000
vn 0.668968 0.743291 0.000000
vn 0.668969 0.743291 0.000000
vn 0.668969 0.743291 0.000000
vn 0.668969 0.743290 0.000000
vn 0.099514 0.000000 0.995036
vn 0.099514 0.000000 0.995036
vn 0.099514 0.000000 0.995036
vn 0.099514 0.000000 0.995036
vn 0.668968 -0.743291 0.000000
vn 0.668969 -0.743291 0.000000
vn 0.668969 -0.743291 0.000000
vn 0.668969 -0.743290 0.000000
vn 0.099514 0.000000 -0.995036
vn 0.099514 0.000000 -0.995036
vn 0.099514 0.000000 -0.995036
vn 0.099514 0.000000 -0.995036
vn -0.668968 0.743291 0.000000
vn -0.668969 0.743291 0.000000
vn -0.668969 0.743291 0.000000
vn -0.668969 0.743290 0.000000
vn -0.099514 0.000000 -0.995036
vn -0.099514 0.000000 -0.995036
vn -0.099514 0.000000 -0.995036
vn -0.099514 0.000000 -0.995036
vn -0.668968 -0.743291 0.000000
vn -0.668969 -0.743291 0.000000
vn -0.668969 -0.743291 0.000000
vn -0.668969 -0.743290 0.000000
vn -0.099514 0.000000 0.995036
vn -0.099514 0.000000 0.995036
vn -0.099514 0.000000 0.995036
vn -0.099514 0.000000 0.995036
s 1
g pCube1
f 41/121/161 43/118/162 61/122/163
f 61/122/163 43/118/162 59/117/164
s 2
f 42/145/165 41/149/166 45/146/167
f 45/146/167 41/149/166 46/150/168
s 3
f 43/118/169 42/125/170 47/119/171
f 47/119/171 42/125/170 48/127/172
s 4
f 44/101/173 46/105/174 64/102/175
f 64/102/175 46/105/174 62/106/176
s 5
f 45/109/177 44/101/178 51/111/179
f 51/111/179 44/101/178 52/104/180
s 6
f 47/119/181 49/123/182 53/120/183
f 53/120/183 49/123/182 54/124/184
s 7
f 49/151/185 48/148/186 50/152/187
f 50/152/187 48/148/186 51/147/188
s 8
f 50/107/189 52/104/190 57/108/191
f 57/108/191 52/104/190 58/103/192
s 9
f 53/120/193 55/128/194 59/117/195
f 59/117/195 55/128/194 60/126/196
s 10
f 55/153/197 54/157/198 56/154/199
f 56/154/199 54/157/198 57/158/200
s 11
f 56/112/201 58/103/202 63/110/203
f 63/110/203 58/103/202 64/102/204
s 12
f 61/159/205 60/156/206 62/160/207
f 62/160/207 60/156/206 63/155/208
s 13
f 42/145/209 45/146/210 48/148/211
f 48/148/211 45/146/210 51/147/212
s 14
f 66/129/213 65/130/214 68/132/215
f 68/132/215 65/130/214 67/131/216
s 15
f 55/153/217 56/154/218 60/156/219
f 60/156/219 56/154/218 63/155/220
s 16
f 70/137/221 69/138/222 72/140/223
f 72/140/223 69/138/222 71/139/224
s 17
f 74/97/225 73/98/226 76/100/227
f 76/100/227 73/98/226 75/99/228
s 18
f 78/113/229 77/114/230 80/116/231
f 80/116/231 77/114/230 79/115/232
s off
f 41/121/233 42/125/234 43/118/235
f 44/101/236 45/109/237 46/105/238
f 47/119/239 48/127/240 49/123/241
f 50/107/242 51/111/243 52/104/244
f 53/120/245 54/124/246 55/128/247
f 56/112/248 57/108/249 58/103/250
f 59/117/251 60/126/252 61/122/253
f 62/106/254 63/110/255 64/102/256
s 19
f 49/161/257 50/162/258 66/164/259
f 66/164/259 50/162/258 65/163/260
s 20
f 50/133/261 57/134/262 65/130/263
f 65/130/263 57/134/262 67/131/264
s 21
f 57/165/265 54/166/266 67/168/267
f 67/168/267 54/166/266 68/167/268
s 22
f 54/135/269 49/136/270 68/132/271
f 68/132/271 49/136/270 66/129/272
s 23
f 61/169/273 62/170/274 70/172/275
f 70/172/275 62/170/274 69/171/276
s 24
f 62/141/277 46/142/278 69/138/279
f 69/138/279 46/142/278 71/139/280
s 25
f 46/173/281 41/174/282 71/176/283
f 71/176/283 41/174/282 72/175/284
s 26
f 41/143/285 61/144/286 72/140/287
f 72/140/287 61/144/286 70/137/288
s 27
f 44/101/289 64/102/290 74/97/291
f 74/97/291 64/102/290 73/98/292
s 28
f 64/177/293 58/178/294 73/180/295
f 73/180/295 58/178/294 75/179/296
s 29
f 58/103/297 52/104/298 75/99/299
f 75/99/299 52/104/298 76/100/300
s 30
f 52/181/301 44/182/302 76/184/303
f 76/184/303 44/182/302 74/183/304
s 31
f 59/117/305 43/118/306 78/113/307
f 78/113/307 43/118/306 77/114/308
s 32
f 43/185/309 47/186/310 77/188/311
f 77/188/311 47/186/310 79/187/312
s 33
f 47/119/313 53/120/314 79/115/315
f 79/115/315 53/120/314 80/116/316
s 34
f 53/189/317 59/190/318 80/192/319
f 80/192/319 59/190/318 78/191/320
