# Blender v2.79 (sub 0) OBJ File: ''
# www.blender.org
mtllib Bumper2.mtl
o Cube
v 0.222057 -0.178160 -0.874841
v -0.024916 -0.178160 -0.973172
v 0.221589 -0.178160 -0.919597
v 0.217355 -0.178160 -0.959464
v 0.209416 -0.178160 -0.993859
v 0.197889 -0.178160 -1.022282
v 0.182941 -0.178160 -1.044319
v 0.164790 -0.178160 -1.059647
v 0.143702 -0.178160 -1.068043
v 0.119983 -0.178160 -1.069385
v 0.093979 -0.178160 -1.063653
v 0.066070 -0.178160 -1.050931
v 0.036663 -0.178160 -1.031405
v 0.006186 -0.178160 -1.005358
v -0.024917 0.139993 -0.973172
v 0.222056 0.139993 -0.874841
v 0.006185 0.139993 -1.005358
v 0.036662 0.139993 -1.031405
v 0.066070 0.139993 -1.050931
v 0.093979 0.139993 -1.063653
v 0.119982 0.139993 -1.069385
v 0.143701 0.139993 -1.068043
v 0.164790 0.139993 -1.059647
v 0.182940 0.139993 -1.044319
v 0.197888 0.139993 -1.022282
v 0.209416 0.139993 -0.993859
v 0.217354 0.139993 -0.959464
v 0.221588 0.139993 -0.919597
v -0.112863 -0.178160 1.156074
v 0.162860 -0.178160 1.081209
v -0.091269 -0.178160 1.188721
v -0.069721 -0.178160 1.217795
v -0.048367 -0.178160 1.243096
v -0.027351 -0.178160 1.264453
v -0.006819 -0.178160 1.281718
v 0.013091 -0.178160 1.294774
v 0.032242 -0.178160 1.303533
v 0.050502 -0.178160 1.307933
v 0.067749 -0.178160 1.307946
v 0.083862 -0.178160 1.303571
v 0.098734 -0.178160 1.294837
v 0.112261 -0.178160 1.281806
v 0.124352 -0.178160 1.264564
v 0.134924 -0.178160 1.243231
v 0.143905 -0.178160 1.217952
v 0.151233 -0.178160 1.188900
v 0.156859 -0.178160 1.156273
v 0.160743 -0.178160 1.120294
v 0.162860 0.139993 1.081209
v -0.112863 0.139993 1.156075
v 0.160743 0.139993 1.120294
v 0.156859 0.139993 1.156273
v 0.151233 0.139993 1.188900
v 0.143905 0.139993 1.217952
v 0.134924 0.139993 1.243231
v 0.124352 0.139993 1.264564
v 0.112261 0.139993 1.281806
v 0.098734 0.139993 1.294837
v 0.083863 0.139993 1.303571
v 0.067749 0.139993 1.307946
v 0.050502 0.139993 1.307934
v 0.032242 0.139993 1.303533
v 0.013091 0.139993 1.294775
v -0.006818 0.139993 1.281718
v -0.027351 0.139993 1.264453
v -0.048366 0.139993 1.243096
v -0.069721 0.139993 1.217795
v -0.091269 0.139993 1.188722
v -0.702117 -0.178160 -0.212719
v -0.733877 -0.178160 0.166681
v -0.712626 -0.178160 -0.200117
v -0.722495 -0.178160 -0.186634
v -0.731680 -0.178160 -0.172332
v -0.740137 -0.178160 -0.157279
v -0.747826 -0.178160 -0.141544
v -0.754712 -0.178160 -0.125201
v -0.760763 -0.178160 -0.108325
v -0.765951 -0.178160 -0.090997
v -0.770250 -0.178160 -0.073296
v -0.773642 -0.178160 -0.055305
v -0.776111 -0.178160 -0.037107
v -0.777644 -0.178160 -0.018789
v -0.778236 -0.178160 -0.000434
v -0.777882 -0.178160 0.017870
v -0.776585 -0.178160 0.036040
v -0.774351 -0.178160 0.053990
v -0.771190 -0.178160 0.071636
v -0.767117 -0.178160 0.088897
v -0.762150 -0.178160 0.105691
v -0.756314 -0.178160 0.121941
v -0.749635 -0.178160 0.137571
v -0.742145 -0.178160 0.152507
v -0.733877 0.139993 0.166682
v -0.702117 0.139993 -0.212718
v -0.742145 0.139993 0.152508
v -0.749635 0.139993 0.137572
v -0.756314 0.139993 0.121942
v -0.762151 0.139993 0.105692
v -0.767117 0.139993 0.088898
v -0.771190 0.139993 0.071637
v -0.774351 0.139993 0.053991
v -0.776585 0.139993 0.036041
v -0.777882 0.139993 0.017871
v -0.778236 0.139993 -0.000434
v -0.777645 0.139993 -0.018788
v -0.776111 0.139993 -0.037106
v -0.773643 0.139993 -0.055304
v -0.770250 0.139993 -0.073295
v -0.765951 0.139993 -0.090996
v -0.760763 0.139993 -0.108324
v -0.754712 0.139993 -0.125200
v -0.747826 0.139993 -0.141543
v -0.740137 0.139993 -0.157278
v -0.731680 0.139993 -0.172331
v -0.722495 0.139993 -0.186633
v -0.712626 0.139993 -0.200116
vt 0.000000 0.172988
vt 0.000000 0.862849
vt 1.000000 0.862849
vt 1.000000 0.172988
vt 0.236454 0.236454
vt 0.855323 0.855323
vt 0.865196 0.864903
vt 0.875023 0.873854
vt 0.884758 0.882134
vt 0.894356 0.889702
vt 0.903773 0.896526
vt 0.912962 0.902573
vt 0.921883 0.907814
vt 0.930494 0.912223
vt 0.938756 0.915787
vt 0.946626 0.918480
vt 0.954075 0.920296
vt 0.961060 0.921222
vt 0.967550 0.921254
vt 0.973521 0.920398
vt 0.978937 0.918648
vt 0.983779 0.916021
vt 0.988022 0.912525
vt 0.991647 0.908178
vt 0.994635 0.903000
vt 0.996974 0.897012
vt 0.998652 0.890247
vt 0.999663 0.882733
vt 1.000000 0.874506
vt 1.000000 0.258693
vt 0.999409 0.237331
vt 0.997641 0.216114
vt 0.994707 0.195188
vt 0.990627 0.174696
vt 0.985430 0.154778
vt 0.979150 0.135569
vt 0.971832 0.117202
vt 0.963523 0.099801
vt 0.954283 0.083485
vt 0.944173 0.068366
vt 0.933263 0.054548
vt 0.921627 0.042124
vt 0.909346 0.031179
vt 0.896501 0.021789
vt 0.883181 0.014017
vt 0.869478 0.007916
vt 0.855485 0.003528
vt 0.841297 0.000884
vt 0.827012 0.000000
vt 0.137151 0.000000
vt 0.122343 0.001724
vt 0.111200 0.006871
vt 0.103882 0.015366
vt 0.100498 0.027084
vt 0.101097 0.041856
vt 0.105669 0.059466
vt 0.114148 0.079656
vt 0.126411 0.102133
vt 0.142279 0.126569
vt 0.161519 0.152607
vt 0.183853 0.179867
vt 0.208953 0.207953
vt 0.000000 0.878614
vt 1.000000 0.878614
vt 0.000000 0.892616
vt 1.000000 0.892616
vt 0.000000 0.904651
vt 1.000000 0.904651
vt 0.000000 0.914543
vt 1.000000 0.914543
vt 0.000000 0.922149
vt 1.000000 0.922149
vt 0.000000 0.927356
vt 1.000000 0.927356
vt 0.000000 1.000000
vt 1.000000 1.000000
vt 0.000000 0.125241
vt 0.000000 0.134219
vt 1.000000 0.134219
vt 1.000000 0.125241
vt 0.000000 0.147331
vt 1.000000 0.147331
vt 0.000000 0.164386
vt 1.000000 0.164386
vt 0.000000 0.185135
vt 1.000000 0.185134
vt 0.000000 0.209275
vt 1.000000 0.209275
vt 0.000000 0.236455
vt 1.000000 0.236455
vt 0.137151 0.137151
vt 0.827012 0.827012
vt 0.841297 0.840414
vt 0.855485 0.851957
vt 0.869478 0.861562
vt 0.883181 0.869164
vt 0.896501 0.874712
vt 0.909346 0.878166
vt 0.921628 0.879504
vt 0.933262 0.878714
vt 0.944175 0.875809
vt 0.954281 0.870796
vt 0.963525 0.863724
vt 0.971832 0.854631
vt 0.979151 0.843582
vt 0.985430 0.830652
vt 0.990627 0.815931
vt 0.994707 0.799519
vt 0.997640 0.781527
vt 0.999409 0.762079
vt 1.000000 0.741307
vt 1.000000 0.125494
vt 0.999663 0.116930
vt 0.998652 0.108405
vt 0.996974 0.099961
vt 0.994635 0.091636
vt 0.991646 0.083469
vt 0.988023 0.075496
vt 0.983779 0.067760
vt 0.978937 0.060290
vt 0.973520 0.053125
vt 0.967550 0.046298
vt 0.961058 0.039837
vt 0.954073 0.033778
vt 0.946627 0.028145
vt 0.938756 0.022970
vt 0.930496 0.018269
vt 0.921884 0.014070
vt 0.912962 0.010389
vt 0.903773 0.007246
vt 0.894356 0.004654
vt 0.884758 0.002625
vt 0.875023 0.001169
vt 0.865196 0.000293
vt 0.855323 0.000000
vt 0.236455 0.000000
vt 0.208953 0.001000
vt 0.183853 0.003985
vt 0.161519 0.008913
vt 0.142279 0.015710
vt 0.126411 0.024278
vt 0.114148 0.034492
vt 0.105669 0.046203
vt 0.101097 0.059240
vt 0.100498 0.073414
vt 0.103882 0.088517
vt 0.111200 0.104329
vt 0.122343 0.120619
vt 0.000000 0.741307
vt 0.000000 0.761936
vt 1.000000 0.761935
vt 1.000000 0.741307
vt 0.000000 0.780956
vt 1.000000 0.780956
vt 0.000000 0.798238
vt 1.000000 0.798238
vt 0.000000 0.813663
vt 1.000000 0.813663
vt 0.000000 0.827127
vt 1.000000 0.827127
vt 0.000000 0.838536
vt 1.000000 0.838536
vt 0.000000 0.847814
vt 1.000000 0.847814
vt 0.000000 0.854897
vt 1.000000 0.854897
vt 0.000000 0.859736
vt 1.000000 0.859736
vt 0.000000 1.000000
vt 1.000000 1.000000
vt 0.000000 0.093794
vt 0.000000 0.097030
vt 1.000000 0.097030
vt 1.000000 0.093794
vt 0.000000 0.101766
vt 1.000000 0.101766
vt 0.000000 0.107970
vt 1.000000 0.107970
vt 0.000000 0.115600
vt 1.000000 0.115600
vt 0.000000 0.124603
vt 1.000000 0.124603
vt 0.000000 0.134918
vt 1.000000 0.134918
vt 0.000000 0.146474
vt 1.000000 0.146474
vt 0.000000 0.159193
vt 1.000000 0.159193
vt 0.000000 0.125494
vt 1.000000 0.125494
vt 0.000000 0.855323
vt 0.000000 0.865290
vt 1.000000 0.865290
vt 1.000000 0.855323
vt 0.000000 0.875399
vt 1.000000 0.875399
vt 0.000000 0.885602
vt 1.000000 0.885602
vt 0.000000 0.895853
vt 1.000000 0.895853
vt 0.000000 0.906103
vt 1.000000 0.906103
vt 0.000000 0.916304
vt 1.000000 0.916304
vt 0.000000 0.926409
vt 1.000000 0.926409
vt 0.000000 0.936370
vt 1.000000 0.936370
vt 0.000000 0.946142
vt 1.000000 0.946142
vt 0.000000 0.955679
vt 1.000000 0.955679
vt 0.000000 0.964936
vt 1.000000 0.964936
vt 0.000000 1.000000
vt 1.000000 1.000000
vt 0.000000 0.030414
vt 0.000000 0.038444
vt 1.000000 0.038444
vt 1.000000 0.030414
vt 0.000000 0.046716
vt 1.000000 0.046716
vt 0.000000 0.055192
vt 1.000000 0.055192
vt 0.000000 0.063833
vt 1.000000 0.063833
vt 0.000000 0.072598
vt 1.000000 0.072598
vt 0.000000 0.081447
vt 1.000000 0.081447
vt 0.000000 0.090338
vt 1.000000 0.090338
vt 0.000000 0.099229
vt 1.000000 0.099229
vt 0.000000 0.108079
vt 1.000000 0.108079
vt 0.000000 0.116848
vt 1.000000 0.116848
vn 0.9995 0.0000 0.0302
vn 0.0000 1.0000 -0.0000
vn 0.9999 0.0000 -0.0105
vn 0.9944 0.0000 -0.1056
vn 0.9744 0.0000 -0.2249
vn 0.9267 0.0000 -0.3758
vn 0.8276 0.0000 -0.5614
vn 0.6452 0.0000 -0.7640
vn 0.3699 0.0000 -0.9291
vn 0.0565 0.0000 -0.9984
vn -0.2153 -0.0000 -0.9766
vn -0.4148 -0.0000 -0.9099
vn -0.5532 -0.0000 -0.8331
vn -0.6497 -0.0000 -0.7602
vn -0.7191 -0.0000 -0.6949
vn 0.0000 -1.0000 0.0000
vn -0.8341 -0.0000 0.5517
vn -0.8034 -0.0000 0.5954
vn -0.7642 -0.0000 0.6450
vn -0.7128 0.0000 0.7014
vn -0.6436 0.0000 0.7654
vn -0.5484 -0.0000 0.8362
vn -0.4159 -0.0000 0.9094
vn -0.2343 -0.0000 0.9722
vn -0.0007 -0.0000 1.0000
vn 0.2620 -0.0000 0.9651
vn 0.5064 -0.0000 0.8623
vn 0.6938 -0.0000 0.7202
vn 0.8187 -0.0000 0.5742
vn 0.8960 -0.0000 0.4440
vn 0.9423 -0.0000 0.3348
vn 0.9696 -0.0000 0.2446
vn 0.9855 -0.0000 0.1699
vn 0.9942 -0.0000 0.1073
vn 0.9985 -0.0000 0.0541
vn -0.8470 -0.0000 0.5316
vn -0.7680 0.0000 -0.6404
vn -0.8069 0.0000 -0.5907
vn -0.8414 0.0000 -0.5404
vn -0.8718 0.0000 -0.4898
vn -0.8985 0.0000 -0.4391
vn -0.9215 0.0000 -0.3883
vn -0.9413 0.0000 -0.3375
vn -0.9580 0.0000 -0.2868
vn -0.9717 0.0000 -0.2360
vn -0.9827 -0.0000 -0.1853
vn -0.9909 0.0000 -0.1344
vn -0.9965 -0.0000 -0.0834
vn -0.9995 -0.0000 -0.0322
vn -0.9998 -0.0000 0.0193
vn -0.9975 -0.0000 0.0712
vn -0.9923 -0.0000 0.1235
vn -0.9843 -0.0000 0.1763
vn -0.9733 -0.0000 0.2297
vn -0.9590 -0.0000 0.2836
vn -0.9411 -0.0000 0.3380
vn -0.9196 -0.0000 0.3930
vn -0.8939 -0.0000 0.4483
vn -0.8638 -0.0000 0.5038
vn -0.7468 0.0000 -0.6650
usemtl Material
s off
f 30/1/1 1/2/1 16/3/1 49/4/1
f 15/5/2 94/6/2 116/7/2 115/8/2 114/9/2 113/10/2 112/11/2 111/12/2 110/13/2 109/14/2 108/15/2 107/16/2 106/17/2 105/18/2 104/19/2 103/20/2 102/21/2 101/22/2 100/23/2 99/24/2 98/25/2 97/26/2 96/27/2 95/28/2 93/29/2 50/30/2 68/31/2 67/32/2 66/33/2 65/34/2 64/35/2 63/36/2 62/37/2 61/38/2 60/39/2 59/40/2 58/41/2 57/42/2 56/43/2 55/44/2 54/45/2 53/46/2 52/47/2 51/48/2 49/49/2 16/50/2 28/51/2 27/52/2 26/53/2 25/54/2 24/55/2 23/56/2 22/57/2 21/58/2 20/59/2 19/60/2 18/61/2 17/62/2
f 1/2/3 3/63/3 28/64/3 16/3/3
f 3/63/4 4/65/4 27/66/4 28/64/4
f 4/65/5 5/67/5 26/68/5 27/66/5
f 5/67/6 6/69/6 25/70/6 26/68/6
f 6/69/7 7/71/7 24/72/7 25/70/7
f 7/71/8 8/73/8 23/74/8 24/72/8
f 8/73/9 9/75/9 22/76/9 23/74/9
f 9/77/10 10/78/10 21/79/10 22/80/10
f 10/78/11 11/81/11 20/82/11 21/79/11
f 11/81/12 12/83/12 19/84/12 20/82/12
f 12/83/13 13/85/13 18/86/13 19/84/13
f 13/85/14 14/87/14 17/88/14 18/86/14
f 14/87/15 2/89/15 15/90/15 17/88/15
f 1/91/16 30/92/16 48/93/16 47/94/16 46/95/16 45/96/16 44/97/16 43/98/16 42/99/16 41/100/16 40/101/16 39/102/16 38/103/16 37/104/16 36/105/16 35/106/16 34/107/16 33/108/16 32/109/16 31/110/16 29/111/16 70/112/16 92/113/16 91/114/16 90/115/16 89/116/16 88/117/16 87/118/16 86/119/16 85/120/16 84/121/16 83/122/16 82/123/16 81/124/16 80/125/16 79/126/16 78/127/16 77/128/16 76/129/16 75/130/16 74/131/16 73/132/16 72/133/16 71/134/16 69/135/16 2/136/16 14/137/16 13/138/16 12/139/16 11/140/16 10/141/16 9/142/16 8/143/16 7/144/16 6/145/16 5/146/16 4/147/16 3/148/16
f 29/149/17 31/150/17 68/151/17 50/152/17
f 31/150/18 32/153/18 67/154/18 68/151/18
f 32/153/19 33/155/19 66/156/19 67/154/19
f 33/155/20 34/157/20 65/158/20 66/156/20
f 34/157/21 35/159/21 64/160/21 65/158/21
f 35/159/22 36/161/22 63/162/22 64/160/22
f 36/161/23 37/163/23 62/164/23 63/162/23
f 37/163/24 38/165/24 61/166/24 62/164/24
f 38/165/25 39/167/25 60/168/25 61/166/25
f 39/167/26 40/169/26 59/170/26 60/168/26
f 40/171/27 41/172/27 58/173/27 59/174/27
f 41/172/28 42/175/28 57/176/28 58/173/28
f 42/175/29 43/177/29 56/178/29 57/176/29
f 43/177/30 44/179/30 55/180/30 56/178/30
f 44/179/31 45/181/31 54/182/31 55/180/31
f 45/181/32 46/183/32 53/184/32 54/182/32
f 46/183/33 47/185/33 52/186/33 53/184/33
f 47/185/34 48/187/34 51/188/34 52/186/34
f 48/187/35 30/1/35 49/4/35 51/188/35
f 70/189/36 29/149/36 50/152/36 93/190/36
f 69/191/37 71/192/37 116/193/37 94/194/37
f 71/192/38 72/195/38 115/196/38 116/193/38
f 72/195/39 73/197/39 114/198/39 115/196/39
f 73/197/40 74/199/40 113/200/40 114/198/40
f 74/199/41 75/201/41 112/202/41 113/200/41
f 75/201/42 76/203/42 111/204/42 112/202/42
f 76/203/43 77/205/43 110/206/43 111/204/43
f 77/205/44 78/207/44 109/208/44 110/206/44
f 78/207/45 79/209/45 108/210/45 109/208/45
f 79/209/46 80/211/46 107/212/46 108/210/46
f 80/211/47 81/213/47 106/214/47 107/212/47
f 81/213/48 82/215/48 105/216/48 106/214/48
f 82/217/49 83/218/49 104/219/49 105/220/49
f 83/218/50 84/221/50 103/222/50 104/219/50
f 84/221/51 85/223/51 102/224/51 103/222/51
f 85/223/52 86/225/52 101/226/52 102/224/52
f 86/225/53 87/227/53 100/228/53 101/226/53
f 87/227/54 88/229/54 99/230/54 100/228/54
f 88/229/55 89/231/55 98/232/55 99/230/55
f 89/231/56 90/233/56 97/234/56 98/232/56
f 90/233/57 91/235/57 96/236/57 97/234/57
f 91/235/58 92/237/58 95/238/58 96/236/58
f 92/237/59 70/189/59 93/190/59 95/238/59
f 2/89/60 69/191/60 94/194/60 15/90/60
