# Blender v2.79 (sub 0) OBJ File: 'cylinder.blend'
# www.blender.org
mtllib cylinder.mtl
o Cylinder
v -0.062666 0.450000 -0.496057
v -0.062666 -0.450000 -0.496057
v -0.124344 0.450000 -0.484292
v -0.124344 -0.450000 -0.484292
v -0.184061 0.450000 -0.464889
v -0.184061 -0.450000 -0.464889
v -0.240876 0.450000 -0.438154
v -0.240876 -0.450000 -0.438154
v -0.293892 0.450000 -0.404509
v -0.293892 -0.450000 -0.404509
v -0.342273 0.450000 -0.364485
v -0.342273 -0.450000 -0.364485
v -0.385256 0.450000 -0.318713
v -0.385256 -0.450000 -0.318713
v -0.422164 0.450000 -0.267914
v -0.422164 -0.450000 -0.267914
v -0.452413 0.450000 -0.212890
v -0.452413 -0.450000 -0.212890
v -0.475528 0.450000 -0.154509
v -0.475528 -0.450000 -0.154509
v -0.491143 0.450000 -0.093691
v -0.491143 -0.450000 -0.093691
v -0.499013 0.450000 -0.031396
v -0.499013 -0.450000 -0.031396
v -0.499013 0.450000 0.031395
v -0.499013 -0.450000 0.031395
v -0.491144 0.450000 0.093690
v -0.491144 -0.450000 0.093690
v -0.475528 0.450000 0.154508
v -0.475528 -0.450000 0.154508
v -0.452414 0.450000 0.212889
v -0.452414 -0.450000 0.212889
v -0.422164 0.450000 0.267913
v -0.422164 -0.450000 0.267913
v -0.385257 0.450000 0.318712
v -0.385257 -0.450000 0.318712
v -0.342274 0.450000 0.364484
v -0.342274 -0.450000 0.364484
v -0.293893 0.450000 0.404508
v -0.293893 -0.450000 0.404508
v -0.240877 0.450000 0.438153
v -0.240877 -0.450000 0.438153
v -0.184063 0.450000 0.464888
v -0.184063 -0.450000 0.464888
v -0.124345 0.450000 0.484291
v -0.124345 -0.450000 0.484291
v -0.062667 0.450000 0.496057
v -0.062667 -0.450000 0.496057
v -0.000000 0.450000 0.500000
v -0.000000 -0.450000 0.500000
v 0.062666 0.450000 0.496057
v 0.062666 -0.450000 0.496057
v 0.124345 0.450000 0.484292
v 0.124345 -0.450000 0.484292
v 0.184062 0.450000 0.464888
v 0.184062 -0.450000 0.464888
v 0.240877 0.450000 0.438153
v 0.240877 -0.450000 0.438153
v 0.293892 0.450000 0.404509
v 0.293892 -0.450000 0.404509
v 0.342273 0.450000 0.364484
v 0.342273 -0.450000 0.364484
v 0.385256 0.450000 0.318712
v 0.385256 -0.450000 0.318712
v 0.422164 0.450000 0.267914
v 0.422164 -0.450000 0.267914
v 0.452413 0.450000 0.212890
v 0.452413 -0.450000 0.212890
v 0.475528 0.450000 0.154509
v 0.475528 -0.450000 0.154509
v 0.491144 0.450000 0.093691
v 0.491144 -0.450000 0.093691
v 0.499013 0.450000 0.031395
v 0.499013 -0.450000 0.031395
v 0.499013 0.450000 -0.031395
v 0.499013 -0.450000 -0.031395
v 0.491144 0.450000 -0.093691
v 0.491144 -0.450000 -0.093691
v 0.475528 0.450000 -0.154508
v 0.475528 -0.450000 -0.154508
v 0.452414 0.450000 -0.212890
v 0.452414 -0.450000 -0.212890
v 0.422164 0.450000 -0.267913
v 0.422164 -0.450000 -0.267913
v 0.385257 0.450000 -0.318712
v 0.385257 -0.450000 -0.318712
v 0.342274 0.450000 -0.364484
v 0.342274 -0.450000 -0.364484
v 0.293893 0.450000 -0.404509
v 0.293893 -0.450000 -0.404509
v 0.240877 0.450000 -0.438153
v 0.240877 -0.450000 -0.438153
v 0.184062 0.450000 -0.464888
v 0.184062 -0.450000 -0.464888
v 0.124345 0.450000 -0.484292
v 0.124345 -0.450000 -0.484292
v 0.062667 0.450000 -0.496057
v 0.062667 -0.450000 -0.496057
v 0.000000 0.450000 -0.500000
v 0.000000 -0.450000 -0.500000
vt 0.551537 0.732444
vt 0.595837 0.317758
vt 0.366852 0.422746
vt 0.482454 0.725000
vt 0.500000 0.275000
vt 0.482454 0.275000
vt 0.465184 0.725000
vt 0.465184 0.275000
vt 0.465184 0.742146
vt 0.392128 0.340644
vt 0.626676 0.393555
vt 0.448463 0.725000
vt 0.448463 0.275000
vt 0.432555 0.725000
vt 0.432555 0.275000
vt 0.417710 0.725000
vt 0.417710 0.275000
vt 0.404164 0.725000
vt 0.404164 0.275000
vt 0.589240 0.725000
vt 0.602056 0.275000
vt 0.589240 0.275000
vt 0.575016 0.725000
vt 0.575016 0.275000
vt 0.559609 0.725000
vt 0.559609 0.275000
vt 0.543263 0.725000
vt 0.543263 0.275000
vt 0.526234 0.725000
vt 0.526234 0.275000
vt 0.508791 0.725000
vt 0.508791 0.275000
vt 0.491210 0.725000
vt 0.491210 0.275000
vt 0.473767 0.725000
vt 0.473767 0.275000
vt 0.456738 0.725000
vt 0.456738 0.275000
vt 0.440391 0.725000
vt 0.440391 0.275000
vt 0.424984 0.725000
vt 0.424984 0.275000
vt 0.410761 0.725000
vt 0.410761 0.275000
vt 0.397945 0.725000
vt 0.397945 0.275000
vt 0.417710 0.725000
vt 0.404163 0.275000
vt 0.417710 0.275000
vt 0.432554 0.725000
vt 0.432554 0.275000
vt 0.448462 0.725000
vt 0.448462 0.275000
vt 0.465183 0.725000
vt 0.465183 0.275000
vt 0.482453 0.725000
vt 0.482453 0.275000
vt 0.500000 0.725000
vt 0.500000 0.275000
vt 0.517547 0.725000
vt 0.517547 0.275000
vt 0.534817 0.725000
vt 0.534817 0.275000
vt 0.551537 0.725000
vt 0.551537 0.275000
vt 0.567445 0.725000
vt 0.567445 0.275000
vt 0.582290 0.725000
vt 0.582290 0.275000
vt 0.595837 0.725000
vt 0.595837 0.275000
vt 0.410761 0.725000
vt 0.397944 0.275000
vt 0.410761 0.275000
vt 0.424984 0.725000
vt 0.424984 0.275000
vt 0.440391 0.725000
vt 0.440391 0.275000
vt 0.456738 0.725000
vt 0.456738 0.275000
vt 0.473767 0.725000
vt 0.473767 0.275000
vt 0.491209 0.725000
vt 0.491209 0.275000
vt 0.508791 0.725000
vt 0.508791 0.275000
vt 0.526233 0.725000
vt 0.526233 0.275000
vt 0.543262 0.725000
vt 0.543262 0.275000
vt 0.559609 0.725000
vt 0.559609 0.275000
vt 0.575016 0.725000
vt 0.575016 0.275000
vt 0.589239 0.725000
vt 0.589239 0.275000
vt 0.602056 0.725000
vt 0.602056 0.275000
vt 0.582290 0.725000
vt 0.595837 0.275000
vt 0.582290 0.275000
vt 0.567446 0.725000
vt 0.567446 0.275000
vt 0.551537 0.725000
vt 0.551537 0.275000
vt 0.534817 0.725000
vt 0.534817 0.275000
vt 0.517547 0.725000
vt 0.517547 0.275000
vt 0.500000 0.725000
vt 0.482454 0.748029
vt 0.500000 0.750000
vt 0.517547 0.748029
vt 0.534817 0.742146
vt 0.567446 0.719077
vt 0.582290 0.702254
vt 0.595837 0.682242
vt 0.607872 0.659356
vt 0.618206 0.633957
vt 0.637520 0.546845
vt 0.626676 0.606445
vt 0.633148 0.577254
vt 0.639724 0.515698
vt 0.633148 0.422746
vt 0.639724 0.484302
vt 0.637520 0.453155
vt 0.626676 0.393555
vt 0.618206 0.366043
vt 0.607872 0.340644
vt 0.582290 0.297746
vt 0.567445 0.280923
vt 0.551537 0.267556
vt 0.534817 0.257854
vt 0.517547 0.251971
vt 0.465183 0.257854
vt 0.500000 0.250000
vt 0.482453 0.251971
vt 0.448462 0.267556
vt 0.432554 0.280923
vt 0.417710 0.297746
vt 0.404163 0.317758
vt 0.392128 0.340644
vt 0.381794 0.366044
vt 0.373324 0.393555
vt 0.362480 0.453155
vt 0.360276 0.484303
vt 0.360276 0.515698
vt 0.362480 0.546846
vt 0.366852 0.577255
vt 0.373324 0.606445
vt 0.381794 0.633957
vt 0.392128 0.659356
vt 0.404164 0.682242
vt 0.417710 0.702255
vt 0.432555 0.719077
vt 0.448463 0.732444
vt 0.465184 0.742146
vt 0.534817 0.742146
vt 0.517547 0.748029
vt 0.500000 0.750000
vt 0.482454 0.748029
vt 0.448463 0.732444
vt 0.432555 0.719077
vt 0.417710 0.702255
vt 0.404164 0.682242
vt 0.392128 0.659356
vt 0.366852 0.577255
vt 0.381794 0.633957
vt 0.373324 0.606445
vt 0.362480 0.546846
vt 0.360276 0.515698
vt 0.360276 0.484303
vt 0.362480 0.453155
vt 0.366852 0.422746
vt 0.373324 0.393555
vt 0.381794 0.366044
vt 0.404163 0.317758
vt 0.448462 0.267556
vt 0.417710 0.297746
vt 0.432554 0.280923
vt 0.465183 0.257854
vt 0.517547 0.251971
vt 0.482453 0.251971
vt 0.500000 0.250000
vt 0.534817 0.257854
vt 0.551537 0.267556
vt 0.567445 0.280923
vt 0.582290 0.297746
vt 0.595837 0.317758
vt 0.607872 0.340644
vt 0.618206 0.366043
vt 0.633148 0.422746
vt 0.639724 0.515698
vt 0.637520 0.453155
vt 0.639724 0.484302
vt 0.637520 0.546845
vt 0.633148 0.577254
vt 0.626676 0.606445
vt 0.618206 0.633957
vt 0.607872 0.659356
vt 0.595837 0.682242
vt 0.582290 0.702254
vt 0.567446 0.719077
vt 0.551537 0.732444
vt 0.602056 0.725000
vt 0.404163 0.725000
vt 0.397944 0.725000
vt 0.595837 0.725000
vn 0.0000 -1.0000 0.0000
vn -0.0628 0.0000 -0.9980
vn -0.1874 0.0000 -0.9823
vn 0.0000 1.0000 0.0000
vn -0.3090 0.0000 -0.9511
vn -0.4258 0.0000 -0.9048
vn -0.5358 0.0000 -0.8443
vn -0.6374 0.0000 -0.7705
vn -0.7290 0.0000 -0.6845
vn -0.8090 0.0000 -0.5878
vn -0.8763 0.0000 -0.4818
vn -0.9298 0.0000 -0.3681
vn -0.9686 0.0000 -0.2487
vn -0.9921 0.0000 -0.1253
vn -1.0000 0.0000 -0.0000
vn -0.9921 0.0000 0.1253
vn -0.9686 0.0000 0.2487
vn -0.9298 0.0000 0.3681
vn -0.8763 0.0000 0.4818
vn -0.8090 0.0000 0.5878
vn -0.7290 0.0000 0.6845
vn -0.6374 0.0000 0.7705
vn -0.5358 0.0000 0.8443
vn -0.4258 0.0000 0.9048
vn -0.3090 0.0000 0.9511
vn -0.1874 0.0000 0.9823
vn -0.0628 0.0000 0.9980
vn 0.0628 0.0000 0.9980
vn 0.1874 0.0000 0.9823
vn 0.3090 0.0000 0.9511
vn 0.4258 0.0000 0.9048
vn 0.5358 0.0000 0.8443
vn 0.6374 0.0000 0.7705
vn 0.7290 0.0000 0.6845
vn 0.8090 0.0000 0.5878
vn 0.8763 0.0000 0.4818
vn 0.9298 0.0000 0.3681
vn 0.9686 0.0000 0.2487
vn 0.9921 0.0000 0.1253
vn 1.0000 0.0000 0.0000
vn 0.9921 0.0000 -0.1253
vn 0.9686 0.0000 -0.2487
vn 0.9298 0.0000 -0.3681
vn 0.8763 0.0000 -0.4818
vn 0.8090 0.0000 -0.5878
vn 0.7290 0.0000 -0.6845
vn 0.6374 0.0000 -0.7705
vn 0.5358 0.0000 -0.8443
vn 0.4258 0.0000 -0.9048
vn 0.3090 0.0000 -0.9511
vn 0.1874 0.0000 -0.9823
vn 0.0628 0.0000 -0.9980
usemtl Material.001
s off
f 94/1/1 62/2/1 30/3/1
f 1/4/2 100/5/2 2/6/2
f 3/7/3 2/6/3 4/8/3
f 3/9/4 35/10/4 67/11/4
f 5/12/5 4/8/5 6/13/5
f 7/14/6 6/13/6 8/15/6
f 9/16/7 8/15/7 10/17/7
f 11/18/8 10/17/8 12/19/8
f 13/20/9 12/21/9 14/22/9
f 15/23/10 14/22/10 16/24/10
f 17/25/11 16/24/11 18/26/11
f 19/27/12 18/26/12 20/28/12
f 21/29/13 20/28/13 22/30/13
f 23/31/14 22/30/14 24/32/14
f 25/33/15 24/32/15 26/34/15
f 27/35/16 26/34/16 28/36/16
f 29/37/17 28/36/17 30/38/17
f 31/39/18 30/38/18 32/40/18
f 33/41/19 32/40/19 34/42/19
f 35/43/20 34/42/20 36/44/20
f 37/45/21 36/44/21 38/46/21
f 39/47/22 38/48/22 40/49/22
f 41/50/23 40/49/23 42/51/23
f 43/52/24 42/51/24 44/53/24
f 45/54/25 44/53/25 46/55/25
f 47/56/26 46/55/26 48/57/26
f 49/58/27 48/57/27 50/59/27
f 51/60/28 50/59/28 52/61/28
f 53/62/29 52/61/29 54/63/29
f 55/64/30 54/63/30 56/65/30
f 57/66/31 56/65/31 58/67/31
f 59/68/32 58/67/32 60/69/32
f 61/70/33 60/69/33 62/71/33
f 63/72/34 62/73/34 64/74/34
f 65/75/35 64/74/35 66/76/35
f 67/77/36 66/76/36 68/78/36
f 69/79/37 68/78/37 70/80/37
f 71/81/38 70/80/38 72/82/38
f 73/83/39 72/82/39 74/84/39
f 75/85/40 74/84/40 76/86/40
f 77/87/41 76/86/41 78/88/41
f 79/89/42 78/88/42 80/90/42
f 81/91/43 80/90/43 82/92/43
f 83/93/44 82/92/44 84/94/44
f 85/95/45 84/94/45 86/96/45
f 87/97/46 86/96/46 88/98/46
f 89/99/47 88/100/47 90/101/47
f 91/102/48 90/101/48 92/103/48
f 93/104/49 92/103/49 94/105/49
f 95/106/50 94/105/50 96/107/50
f 97/108/51 96/107/51 98/109/51
f 99/110/52 98/109/52 100/5/52
f 2/111/1 100/112/1 94/1/1
f 100/112/1 98/113/1 94/1/1
f 98/113/1 96/114/1 94/1/1
f 94/1/1 92/115/1 90/116/1
f 90/116/1 88/117/1 86/118/1
f 86/118/1 84/119/1 78/120/1
f 84/119/1 82/121/1 78/120/1
f 82/121/1 80/122/1 78/120/1
f 78/120/1 76/123/1 70/124/1
f 76/123/1 74/125/1 70/124/1
f 74/125/1 72/126/1 70/124/1
f 70/124/1 68/127/1 66/128/1
f 66/128/1 64/129/1 62/2/1
f 62/2/1 60/130/1 58/131/1
f 58/131/1 56/132/1 54/133/1
f 54/133/1 52/134/1 46/135/1
f 52/134/1 50/136/1 46/135/1
f 50/136/1 48/137/1 46/135/1
f 46/135/1 44/138/1 42/139/1
f 42/139/1 40/140/1 38/141/1
f 38/141/1 36/142/1 34/143/1
f 34/143/1 32/144/1 30/3/1
f 30/3/1 28/145/1 26/146/1
f 26/146/1 24/147/1 30/3/1
f 24/147/1 22/148/1 30/3/1
f 22/148/1 20/149/1 18/150/1
f 18/150/1 16/151/1 14/152/1
f 14/152/1 12/153/1 10/154/1
f 10/154/1 8/155/1 6/156/1
f 6/156/1 4/157/1 94/1/1
f 4/157/1 2/111/1 94/1/1
f 94/1/1 90/116/1 78/120/1
f 90/116/1 86/118/1 78/120/1
f 70/124/1 66/128/1 62/2/1
f 62/2/1 58/131/1 54/133/1
f 46/135/1 42/139/1 38/141/1
f 38/141/1 34/143/1 30/3/1
f 22/148/1 18/150/1 30/3/1
f 18/150/1 14/152/1 30/3/1
f 14/152/1 10/154/1 94/1/1
f 10/154/1 6/156/1 94/1/1
f 78/120/1 70/124/1 62/2/1
f 62/2/1 54/133/1 30/3/1
f 54/133/1 46/135/1 30/3/1
f 46/135/1 38/141/1 30/3/1
f 94/1/1 78/120/1 62/2/1
f 30/3/1 14/152/1 94/1/1
f 1/4/2 99/110/2 100/5/2
f 3/7/3 1/4/3 2/6/3
f 95/158/4 97/159/4 99/160/4
f 99/160/4 1/161/4 3/9/4
f 3/9/4 5/162/4 7/163/4
f 7/163/4 9/164/4 3/9/4
f 9/164/4 11/165/4 3/9/4
f 11/165/4 13/166/4 19/167/4
f 13/166/4 15/168/4 19/167/4
f 15/168/4 17/169/4 19/167/4
f 19/167/4 21/170/4 23/171/4
f 23/171/4 25/172/4 19/167/4
f 25/172/4 27/173/4 19/167/4
f 27/173/4 29/174/4 31/175/4
f 31/175/4 33/176/4 35/10/4
f 35/10/4 37/177/4 43/178/4
f 37/177/4 39/179/4 43/178/4
f 39/179/4 41/180/4 43/178/4
f 43/178/4 45/181/4 51/182/4
f 45/181/4 47/183/4 51/182/4
f 47/183/4 49/184/4 51/182/4
f 51/182/4 53/185/4 55/186/4
f 55/186/4 57/187/4 51/182/4
f 57/187/4 59/188/4 51/182/4
f 59/188/4 61/189/4 63/190/4
f 63/190/4 65/191/4 67/11/4
f 67/11/4 69/192/4 75/193/4
f 69/192/4 71/194/4 75/193/4
f 71/194/4 73/195/4 75/193/4
f 75/193/4 77/196/4 79/197/4
f 79/197/4 81/198/4 83/199/4
f 83/199/4 85/200/4 87/201/4
f 87/201/4 89/202/4 91/203/4
f 91/203/4 93/204/4 95/158/4
f 95/158/4 99/160/4 91/203/4
f 99/160/4 3/9/4 91/203/4
f 27/173/4 31/175/4 19/167/4
f 31/175/4 35/10/4 19/167/4
f 59/188/4 63/190/4 51/182/4
f 63/190/4 67/11/4 51/182/4
f 75/193/4 79/197/4 83/199/4
f 83/199/4 87/201/4 91/203/4
f 3/9/4 11/165/4 19/167/4
f 35/10/4 43/178/4 51/182/4
f 67/11/4 75/193/4 83/199/4
f 83/199/4 91/203/4 3/9/4
f 3/9/4 19/167/4 35/10/4
f 35/10/4 51/182/4 67/11/4
f 67/11/4 83/199/4 3/9/4
f 5/12/5 3/7/5 4/8/5
f 7/14/6 5/12/6 6/13/6
f 9/16/7 7/14/7 8/15/7
f 11/18/8 9/16/8 10/17/8
f 13/20/9 11/205/9 12/21/9
f 15/23/10 13/20/10 14/22/10
f 17/25/11 15/23/11 16/24/11
f 19/27/12 17/25/12 18/26/12
f 21/29/13 19/27/13 20/28/13
f 23/31/14 21/29/14 22/30/14
f 25/33/15 23/31/15 24/32/15
f 27/35/16 25/33/16 26/34/16
f 29/37/17 27/35/17 28/36/17
f 31/39/18 29/37/18 30/38/18
f 33/41/19 31/39/19 32/40/19
f 35/43/20 33/41/20 34/42/20
f 37/45/21 35/43/21 36/44/21
f 39/47/22 37/206/22 38/48/22
f 41/50/23 39/47/23 40/49/23
f 43/52/24 41/50/24 42/51/24
f 45/54/25 43/52/25 44/53/25
f 47/56/26 45/54/26 46/55/26
f 49/58/27 47/56/27 48/57/27
f 51/60/28 49/58/28 50/59/28
f 53/62/29 51/60/29 52/61/29
f 55/64/30 53/62/30 54/63/30
f 57/66/31 55/64/31 56/65/31
f 59/68/32 57/66/32 58/67/32
f 61/70/33 59/68/33 60/69/33
f 63/72/34 61/207/34 62/73/34
f 65/75/35 63/72/35 64/74/35
f 67/77/36 65/75/36 66/76/36
f 69/79/37 67/77/37 68/78/37
f 71/81/38 69/79/38 70/80/38
f 73/83/39 71/81/39 72/82/39
f 75/85/40 73/83/40 74/84/40
f 77/87/41 75/85/41 76/86/41
f 79/89/42 77/87/42 78/88/42
f 81/91/43 79/89/43 80/90/43
f 83/93/44 81/91/44 82/92/44
f 85/95/45 83/93/45 84/94/45
f 87/97/46 85/95/46 86/96/46
f 89/99/47 87/208/47 88/100/47
f 91/102/48 89/99/48 90/101/48
f 93/104/49 91/102/49 92/103/49
f 95/106/50 93/104/50 94/105/50
f 97/108/51 95/106/51 96/107/51
f 99/110/52 97/108/52 98/109/52
