# Blender v2.79 (sub 0) OBJ File: 'can.blend'
# www.blender.org
mtllib can.mtl
o Cylinder
v -0.037709 -0.507133 0.383476
v 0.002682 0.507133 0.383476
v 0.037766 -0.510139 0.376108
v 0.078157 0.504128 0.376108
v 0.110341 -0.513029 0.354286
v 0.150732 0.501237 0.354286
v 0.177226 -0.515692 0.318849
v 0.217617 0.498574 0.318849
v 0.235851 -0.518027 0.271159
v 0.276242 0.496239 0.271159
v 0.283964 -0.519943 0.213048
v 0.324355 0.494323 0.213048
v 0.319715 -0.521367 0.146750
v 0.360105 0.492900 0.146750
v 0.341730 -0.522243 0.074813
v 0.382121 0.492023 0.074813
v 0.349164 -0.522539 0.000000
v 0.389554 0.491727 0.000000
v 0.341730 -0.522243 -0.074812
v 0.382121 0.492023 -0.074812
v 0.319715 -0.521367 -0.146750
v 0.360105 0.492900 -0.146750
v 0.283964 -0.519943 -0.213048
v 0.324355 0.494323 -0.213048
v 0.235851 -0.518027 -0.271159
v 0.276242 0.496239 -0.271159
v 0.177226 -0.515692 -0.318849
v 0.217617 0.498574 -0.318849
v 0.110341 -0.513029 -0.354286
v 0.150732 0.501237 -0.354286
v 0.037766 -0.510139 -0.376108
v 0.078157 0.504128 -0.376108
v -0.037709 -0.507133 -0.383476
v 0.002682 0.507133 -0.383476
v -0.113184 -0.504128 -0.376108
v -0.072793 0.510139 -0.376108
v -0.185758 -0.501237 -0.354286
v -0.145368 0.513029 -0.354286
v -0.252644 -0.498574 -0.318849
v -0.212253 0.515692 -0.318849
v -0.311269 -0.496239 -0.271158
v -0.270878 0.518027 -0.271158
v -0.359381 -0.494323 -0.213048
v -0.318991 0.519943 -0.213048
v -0.395132 -0.492900 -0.146750
v -0.354742 0.521367 -0.146750
v -0.417147 -0.492023 -0.074812
v -0.376757 0.522243 -0.074812
v -0.424581 -0.491727 0.000000
v -0.384190 0.522539 0.000000
v -0.417147 -0.492023 0.074813
v -0.376757 0.522243 0.074813
v -0.395132 -0.492900 0.146751
v -0.354741 0.521367 0.146751
v -0.359381 -0.494323 0.213049
v -0.318990 0.519943 0.213049
v -0.311268 -0.496239 0.271159
v -0.270878 0.518027 0.271159
v -0.252643 -0.498574 0.318849
v -0.212252 0.515692 0.318849
v -0.185758 -0.501237 0.354286
v -0.145367 0.513029 0.354286
v -0.113183 -0.504128 0.376108
v -0.072793 0.510139 0.376108
vt 0.176419 0.496602
vt 0.215772 0.496602
vt 0.215772 0.004634
vt 0.176419 0.004634
vt 0.252863 0.496602
vt 0.252863 0.004634
vt 0.286267 0.496602
vt 0.286267 0.004634
vt 0.314700 0.496602
vt 0.314700 0.004634
vt 0.915460 -0.013485
vt 0.886457 -0.013485
vt 0.886457 0.498641
vt 0.915460 0.498641
vt 0.852321 -0.013485
vt 0.852321 0.498641
vt 0.814365 -0.013485
vt 0.814365 0.498641
vt 0.774046 -0.013485
vt 0.774047 0.498641
vt 0.732916 -0.013485
vt 0.732916 0.498641
vt 0.692553 -0.013485
vt 0.692553 0.498641
vt 0.654509 -0.013485
vt 0.654509 0.498641
vt 0.620247 -0.013485
vt 0.620247 0.498641
vt 0.590649 -0.013485
vt 0.590649 0.498641
vt 0.555876 -0.013485
vt 0.555876 0.498641
vt 0.517265 -0.013485
vt 0.517265 0.498641
vt 0.476300 -0.013485
vt 0.476300 0.498641
vt 0.434555 -0.013485
vt 0.434555 0.498641
vt 0.393634 -0.013485
vt 0.393634 0.498641
vt 0.355109 -0.013485
vt 0.355109 0.498641
vt 0.320462 -0.013485
vt 0.320462 0.498641
vt 0.989276 0.033107
vt 0.958169 0.033107
vt 0.958169 0.498074
vt 0.989276 0.498074
vt 0.923629 0.033107
vt 0.923629 0.498074
vt 0.886983 0.033107
vt 0.886983 0.498074
vt 0.849639 0.033107
vt 0.849639 0.498074
vt 0.813034 0.033107
vt 0.813034 0.498074
vt 0.778572 0.033107
vt 0.778572 0.498074
vt 0.747580 0.033107
vt 0.747580 0.498074
vt -0.001564 0.496602
vt 0.026716 0.496602
vt 0.026716 0.004634
vt -0.001564 0.004634
vt 0.059999 0.496602
vt 0.059999 0.004634
vt 0.097007 0.496602
vt 0.097007 0.004634
vt 0.016908 0.778848
vt 0.033192 0.839487
vt 0.047483 0.888099
vt 0.104227 0.924317
vt 0.130633 0.961460
vt 0.172182 0.969602
vt 0.206683 0.989621
vt 0.231309 0.992249
vt 0.268652 0.992096
vt 0.302278 0.992168
vt 0.336779 0.971866
vt 0.372328 0.960469
vt 0.398734 0.923110
vt 0.419481 0.879222
vt 0.433771 0.830493
vt 0.487554 0.784794
vt 0.487554 0.732113
vt 0.459270 0.671474
vt 0.444979 0.622862
vt 0.398734 0.582144
vt 0.366329 0.570499
vt 0.335279 0.541359
vt 0.303778 0.534839
vt 0.267152 0.524712
vt 0.234309 0.523365
vt 0.197683 0.533793
vt 0.160183 0.534596
vt 0.129133 0.563991
vt 0.104227 0.583351
vt 0.083481 0.627239
vt 0.069190 0.675969
vt 0.016908 0.726167
vt 0.136317 0.496602
vt 0.136317 0.004634
vt 0.553573 0.654877
vt 0.556715 0.677176
vt 0.562879 0.698195
vt 0.571828 0.717125
vt 0.583218 0.733239
vt 0.596610 0.745918
vt 0.611491 0.754674
vt 0.627289 0.759172
vt 0.643396 0.759238
vt 0.659194 0.754870
vt 0.674075 0.746235
vt 0.687467 0.733666
vt 0.698857 0.717645
vt 0.707806 0.698789
vt 0.713969 0.677821
vt 0.717112 0.655548
vt 0.717112 0.632825
vt 0.713969 0.610526
vt 0.707806 0.589507
vt 0.698857 0.570577
vt 0.687467 0.554463
vt 0.674075 0.541784
vt 0.659194 0.533027
vt 0.643396 0.528530
vt 0.627289 0.528464
vt 0.611491 0.532832
vt 0.596610 0.541467
vt 0.583218 0.554036
vt 0.571828 0.570057
vt 0.562879 0.588913
vt 0.556715 0.609881
vt 0.553573 0.632155
vn 0.0970 -0.0039 0.9953
vn 0.2875 -0.0114 0.9577
vn 0.4675 -0.0186 0.8838
vn 0.6302 -0.0251 0.7760
vn 0.7694 -0.0306 0.6380
vn 0.8793 -0.0350 0.4749
vn 0.9554 -0.0380 0.2928
vn 0.9943 -0.0396 0.0990
vn 0.9943 -0.0396 -0.0990
vn 0.9554 -0.0380 -0.2928
vn 0.8793 -0.0350 -0.4749
vn 0.7694 -0.0306 -0.6380
vn 0.6302 -0.0251 -0.7760
vn 0.4675 -0.0186 -0.8838
vn 0.2875 -0.0114 -0.9577
vn 0.0970 -0.0039 -0.9953
vn -0.0970 0.0039 -0.9953
vn -0.2875 0.0114 -0.9577
vn -0.4675 0.0186 -0.8838
vn -0.6302 0.0251 -0.7760
vn -0.7694 0.0306 -0.6380
vn -0.8793 0.0350 -0.4749
vn -0.9554 0.0380 -0.2928
vn -0.9943 0.0396 -0.0990
vn -0.9943 0.0396 0.0990
vn -0.9554 0.0380 0.2928
vn -0.8793 0.0350 0.4749
vn -0.7694 0.0306 0.6380
vn -0.6302 0.0251 0.7760
vn -0.4675 0.0186 0.8838
vn 0.0398 0.9992 0.0000
vn -0.2875 0.0114 0.9577
vn -0.0970 0.0039 0.9953
vn -0.0398 -0.9992 -0.0000
usemtl None
s off
f 1/1/1 3/2/1 4/3/1 2/4/1
f 3/2/2 5/5/2 6/6/2 4/3/2
f 5/5/3 7/7/3 8/8/3 6/6/3
f 7/7/4 9/9/4 10/10/4 8/8/4
f 9/11/5 11/12/5 12/13/5 10/14/5
f 11/12/6 13/15/6 14/16/6 12/13/6
f 13/15/7 15/17/7 16/18/7 14/16/7
f 15/17/8 17/19/8 18/20/8 16/18/8
f 17/19/9 19/21/9 20/22/9 18/20/9
f 19/21/10 21/23/10 22/24/10 20/22/10
f 21/23/11 23/25/11 24/26/11 22/24/11
f 23/25/12 25/27/12 26/28/12 24/26/12
f 25/27/13 27/29/13 28/30/13 26/28/13
f 27/29/14 29/31/14 30/32/14 28/30/14
f 29/31/15 31/33/15 32/34/15 30/32/15
f 31/33/16 33/35/16 34/36/16 32/34/16
f 33/35/17 35/37/17 36/38/17 34/36/17
f 35/37/18 37/39/18 38/40/18 36/38/18
f 37/39/19 39/41/19 40/42/19 38/40/19
f 39/41/20 41/43/20 42/44/20 40/42/20
f 41/45/21 43/46/21 44/47/21 42/48/21
f 43/46/22 45/49/22 46/50/22 44/47/22
f 45/49/23 47/51/23 48/52/23 46/50/23
f 47/51/24 49/53/24 50/54/24 48/52/24
f 49/53/25 51/55/25 52/56/25 50/54/25
f 51/55/26 53/57/26 54/58/26 52/56/26
f 53/57/27 55/59/27 56/60/27 54/58/27
f 55/61/28 57/62/28 58/63/28 56/64/28
f 57/62/29 59/65/29 60/66/29 58/63/29
f 59/65/30 61/67/30 62/68/30 60/66/30
f 4/69/31 6/70/31 8/71/31 10/72/31 12/73/31 14/74/31 16/75/31 18/76/31 20/77/31 22/78/31 24/79/31 26/80/31 28/81/31 30/82/31 32/83/31 34/84/31 36/85/31 38/86/31 40/87/31 42/88/31 44/89/31 46/90/31 48/91/31 50/92/31 52/93/31 54/94/31 56/95/31 58/96/31 60/97/31 62/98/31 64/99/31 2/100/31
f 61/67/32 63/101/32 64/102/32 62/68/32
f 63/101/33 1/1/33 2/4/33 64/102/33
f 1/103/34 63/104/34 61/105/34 59/106/34 57/107/34 55/108/34 53/109/34 51/110/34 49/111/34 47/112/34 45/113/34 43/114/34 41/115/34 39/116/34 37/117/34 35/118/34 33/119/34 31/120/34 29/121/34 27/122/34 25/123/34 23/124/34 21/125/34 19/126/34 17/127/34 15/128/34 13/129/34 11/130/34 9/131/34 7/132/34 5/133/34 3/134/34
