# Blender v2.79 (sub 0) OBJ File: ''
# www.blender.org
mtllib TargetBlue.mtl
o TargetBlue
v 0.131807 0.176197 1.676402
v 0.131807 0.350464 1.648801
v -0.131807 0.176197 1.676402
v -0.131807 0.350464 1.648801
v 0.131807 0.520890 1.603135
v -0.131807 0.520890 1.603135
v 0.131807 0.685610 1.539905
v -0.131807 0.685610 1.539905
v 0.131807 0.842818 1.459803
v -0.131807 0.842818 1.459803
v 0.131807 0.990792 1.363708
v -0.131807 0.990792 1.363708
v 0.131807 1.127911 1.252671
v -0.131807 1.127911 1.252671
v 0.131807 1.252671 1.127910
v -0.131807 1.252671 1.127910
v 0.131807 1.363708 0.990792
v -0.131807 1.363708 0.990792
v 0.131807 1.459803 0.842818
v -0.131807 1.459803 0.842818
v 0.131807 1.539905 0.685610
v -0.131807 1.539905 0.685610
v 0.131807 1.603135 0.520890
v -0.131807 1.603135 0.520890
v 0.131807 1.648800 0.350463
v -0.131807 1.648800 0.350463
v 0.131807 1.676401 0.176197
v -0.131807 1.676401 0.176197
v 0.131807 1.685635 0.000000
v -0.131807 1.685635 -0.000000
v 0.131807 1.676401 -0.176197
v -0.131807 1.676401 -0.176197
v 0.131807 1.648800 -0.350463
v -0.131807 1.648800 -0.350463
v 0.131807 1.603135 -0.520890
v -0.131807 1.603135 -0.520890
v 0.131807 1.539905 -0.685610
v -0.131807 1.539905 -0.685610
v 0.131807 1.459803 -0.842818
v -0.131807 1.459803 -0.842818
v 0.131807 1.363708 -0.990792
v -0.131807 1.363708 -0.990792
v 0.131807 1.252671 -1.127910
v -0.131807 1.252671 -1.127910
v 0.131807 1.127910 -1.252671
v -0.131807 1.127910 -1.252671
v 0.131807 0.990791 -1.363708
v -0.131807 0.990791 -1.363708
v 0.131807 0.842818 -1.459803
v -0.131807 0.842818 -1.459803
v 0.131807 0.685610 -1.539904
v -0.131807 0.685610 -1.539904
v 0.131807 0.520890 -1.603134
v -0.131807 0.520890 -1.603134
v 0.131807 0.350463 -1.648800
v -0.131807 0.350463 -1.648800
v 0.131807 0.176197 -1.676401
v -0.131807 0.176197 -1.676401
v 0.131807 0.000000 -1.685635
v -0.131807 -0.000000 -1.685635
v 0.131807 -0.176197 -1.676401
v -0.131807 -0.176197 -1.676401
v 0.131807 -0.350463 -1.648800
v -0.131807 -0.350463 -1.648800
v 0.131807 -0.520890 -1.603134
v -0.131807 -0.520890 -1.603134
v 0.131807 -0.685610 -1.539904
v -0.131807 -0.685610 -1.539904
v 0.131807 -0.842818 -1.459803
v -0.131807 -0.842818 -1.459803
v 0.131807 -0.990791 -1.363707
v -0.131807 -0.990791 -1.363707
v 0.131807 -1.127910 -1.252671
v -0.131807 -1.127910 -1.252671
v 0.131807 -1.252671 -1.127910
v -0.131807 -1.252671 -1.127910
v 0.131807 -1.363707 -0.990791
v -0.131807 -1.363707 -0.990791
v 0.131807 -1.459803 -0.842817
v -0.131807 -1.459803 -0.842817
v 0.131807 -1.539904 -0.685609
v -0.131807 -1.539904 -0.685609
v 0.131807 -1.603134 -0.520890
v -0.131807 -1.603134 -0.520890
v 0.131807 -1.648800 -0.350463
v -0.131807 -1.648800 -0.350463
v 0.131807 -1.676401 -0.176197
v -0.131807 -1.676401 -0.176197
v 0.131807 -1.685635 0.000000
v -0.131807 -1.685635 -0.000000
v 0.131807 -1.676401 0.176197
v -0.131807 -1.676401 0.176197
v 0.131807 -1.648799 0.350463
v -0.131807 -1.648799 0.350463
v 0.131807 -1.603134 0.520890
v -0.131807 -1.603134 0.520890
v 0.131807 -1.539904 0.685610
v -0.131807 -1.539904 0.685610
v 0.131807 -1.459802 0.842817
v -0.131807 -1.459802 0.842817
v 0.131807 -1.363707 0.990791
v -0.131807 -1.363707 0.990791
v 0.131807 -1.252671 1.127910
v -0.131807 -1.252671 1.127910
v 0.131807 -1.127910 1.252671
v -0.131807 -1.127910 1.252671
v 0.131807 -0.990791 1.363707
v -0.131807 -0.990791 1.363707
v 0.131807 -0.842817 1.459802
v -0.131807 -0.842817 1.459802
v 0.131807 -0.685609 1.539904
v -0.131807 -0.685609 1.539904
v 0.131807 -0.520890 1.603134
v -0.131807 -0.520890 1.603134
v 0.131807 -0.350463 1.648799
v -0.131807 -0.350463 1.648799
v 0.131807 -0.176197 1.676400
v -0.131807 -0.176197 1.676400
v 0.131807 0.000000 1.685634
v -0.131807 -0.000000 1.685634
v 0.131807 0.000000 0.000000
v -0.131807 -0.000000 -0.000000
vt 0.974445 0.264641
vt 0.974445 0.233452
vt 0.927265 0.264641
vt 0.927265 0.233452
vt 0.974445 0.202950
vt 0.927265 0.202950
vt 0.974445 0.173469
vt 0.927265 0.173469
vt 0.974445 0.145333
vt 0.927265 0.145333
vt 0.974445 0.118849
vt 0.927265 0.118849
vt 0.974445 0.094309
vt 0.927265 0.094309
vt 0.974445 0.071980
vt 0.927265 0.071980
vt 0.974445 0.052107
vt 0.927265 0.052107
vt 0.974445 0.034908
vt 0.927265 0.034908
vt 0.825939 0.034908
vt 0.825939 0.063044
vt 0.873119 0.034908
vt 0.873119 0.063044
vt 0.825939 0.092525
vt 0.873119 0.092525
vt 0.825939 0.123027
vt 0.873119 0.123027
vt 0.825939 0.154217
vt 0.873119 0.154217
vt 0.825939 0.185751
vt 0.873119 0.185751
vt 0.825939 0.217286
vt 0.873119 0.217286
vt 0.825939 0.248475
vt 0.873119 0.248475
vt 0.825939 0.278977
vt 0.873119 0.278977
vt 0.825939 0.308458
vt 0.873119 0.308458
vt 0.825939 0.336594
vt 0.873119 0.336594
vt 0.924208 0.557444
vt 0.924208 0.540245
vt 0.877028 0.557444
vt 0.877028 0.540245
vt 0.924208 0.520372
vt 0.877028 0.520372
vt 0.924208 0.498043
vt 0.877028 0.498043
vt 0.924208 0.473503
vt 0.877028 0.473503
vt 0.924208 0.447019
vt 0.877028 0.447019
vt 0.924208 0.418883
vt 0.877028 0.418883
vt 0.924208 0.389402
vt 0.877028 0.389402
vt 0.924208 0.358900
vt 0.877028 0.358900
vt 0.924208 0.327711
vt 0.877028 0.327711
vt 0.924208 0.296176
vt 0.877028 0.296176
vt 0.924208 0.264641
vt 0.877028 0.264641
vt 0.924208 0.233452
vt 0.877028 0.233452
vt 0.924208 0.202950
vt 0.877028 0.202950
vt 0.924208 0.173469
vt 0.877028 0.173469
vt 0.924208 0.145333
vt 0.877028 0.145333
vt 0.924208 0.118849
vt 0.877028 0.118849
vt 0.924208 0.094309
vt 0.877028 0.094309
vt 0.924208 0.071980
vt 0.877028 0.071980
vt 0.924208 0.052107
vt 0.877028 0.052107
vt 0.924208 0.034908
vt 0.877028 0.034908
vt 0.822030 0.336594
vt 0.822030 0.308458
vt 0.774849 0.336594
vt 0.774849 0.308458
vt 0.822030 0.278977
vt 0.774849 0.278977
vt 0.822030 0.248475
vt 0.774849 0.248475
vt 0.822030 0.217286
vt 0.774849 0.217286
vt 0.822030 0.185751
vt 0.774849 0.185751
vt 0.822030 0.154216
vt 0.774849 0.154216
vt 0.822030 0.123027
vt 0.774849 0.123027
vt 0.822030 0.092525
vt 0.774849 0.092525
vt 0.822030 0.063044
vt 0.774849 0.063044
vt 0.822030 0.034908
vt 0.774849 0.034908
vt 0.974445 0.557444
vt 0.974445 0.540245
vt 0.927265 0.557444
vt 0.927265 0.540245
vt 0.974445 0.520373
vt 0.927265 0.520373
vt 0.974445 0.498044
vt 0.927265 0.498044
vt 0.974445 0.473503
vt 0.927265 0.473503
vt 0.974445 0.447019
vt 0.927265 0.447019
vt 0.974445 0.418883
vt 0.927265 0.418883
vt 0.974445 0.389402
vt 0.927265 0.389402
vt 0.974445 0.358900
vt 0.927265 0.358900
vt 0.974445 0.327711
vt 0.927265 0.327711
vt 0.974445 0.296176
vt 0.927265 0.296176
vt 0.815178 0.660576
vt 0.821805 0.618737
vt 0.419320 0.576434
vt 0.804214 0.701494
vt 0.789033 0.741041
vt 0.769802 0.778785
vt 0.746731 0.814312
vt 0.720072 0.847232
vt 0.690118 0.877186
vt 0.657198 0.903845
vt 0.621671 0.926916
vt 0.583927 0.946148
vt 0.544380 0.961328
vt 0.503462 0.972292
vt 0.461623 0.978919
vt 0.419320 0.981136
vt 0.377017 0.978919
vt 0.335177 0.972292
vt 0.294260 0.961328
vt 0.254713 0.946148
vt 0.216969 0.926916
vt 0.181442 0.903845
vt 0.148521 0.877186
vt 0.118568 0.847232
vt 0.091909 0.814312
vt 0.068838 0.778785
vt 0.049606 0.741041
vt 0.034425 0.701494
vt 0.023462 0.660576
vt 0.016835 0.618737
vt 0.014618 0.576434
vt 0.016835 0.534131
vt 0.023462 0.492292
vt 0.034425 0.451374
vt 0.049606 0.411827
vt 0.068838 0.374083
vt 0.091909 0.338556
vt 0.118568 0.305636
vt 0.148521 0.275682
vt 0.181442 0.249023
vt 0.216969 0.225952
vt 0.254713 0.206720
vt 0.294260 0.191540
vt 0.335178 0.180576
vt 0.377017 0.173949
vt 0.419320 0.171732
vt 0.461623 0.173949
vt 0.503462 0.180576
vt 0.544380 0.191540
vt 0.583927 0.206721
vt 0.621671 0.225952
vt 0.657198 0.249023
vt 0.690118 0.275682
vt 0.720072 0.305636
vt 0.746731 0.338556
vt 0.769802 0.374083
vt 0.789033 0.411827
vt 0.804214 0.451374
vt 0.815178 0.492292
vt 0.821805 0.534131
vt 0.824022 0.576434
vt 0.821805 0.618737
vt 0.815178 0.660576
vt 0.419320 0.576434
vt 0.804214 0.701494
vt 0.789033 0.741041
vt 0.769802 0.778785
vt 0.746731 0.814312
vt 0.720072 0.847232
vt 0.690118 0.877186
vt 0.657198 0.903845
vt 0.621671 0.926916
vt 0.583927 0.946148
vt 0.544380 0.961328
vt 0.503462 0.972292
vt 0.461623 0.978919
vt 0.419320 0.981136
vt 0.377017 0.978919
vt 0.335177 0.972292
vt 0.294260 0.961328
vt 0.254713 0.946148
vt 0.216969 0.926916
vt 0.181442 0.903845
vt 0.148521 0.877186
vt 0.118568 0.847232
vt 0.091909 0.814312
vt 0.068838 0.778785
vt 0.049606 0.741041
vt 0.034425 0.701494
vt 0.023462 0.660576
vt 0.016835 0.618737
vt 0.014618 0.576434
vt 0.016835 0.534131
vt 0.023462 0.492292
vt 0.034425 0.451374
vt 0.049606 0.411827
vt 0.068838 0.374083
vt 0.091909 0.338556
vt 0.118568 0.305636
vt 0.148521 0.275682
vt 0.181442 0.249023
vt 0.216969 0.225952
vt 0.254713 0.206720
vt 0.294260 0.191540
vt 0.335178 0.180576
vt 0.377017 0.173949
vt 0.419320 0.171732
vt 0.461623 0.173949
vt 0.503462 0.180576
vt 0.544380 0.191540
vt 0.583927 0.206721
vt 0.621671 0.225952
vt 0.657198 0.249023
vt 0.690118 0.275682
vt 0.720072 0.305636
vt 0.746731 0.338556
vt 0.769802 0.374083
vt 0.789033 0.411827
vt 0.804214 0.451374
vt 0.815178 0.492292
vt 0.821805 0.534131
vt 0.824022 0.576434
vn -0.0000 0.1045 0.9945
vn 0.0000 0.2079 0.9781
vn 0.0000 0.3090 0.9511
vn 0.0000 0.4067 0.9135
vn 0.0000 0.5000 0.8660
vn 0.0000 0.5878 0.8090
vn 0.0000 0.6691 0.7431
vn 0.0000 0.7431 0.6691
vn 0.0000 0.8090 0.5878
vn 0.0000 0.8660 0.5000
vn 0.0000 0.9135 0.4067
vn 0.0000 0.9511 0.3090
vn 0.0000 0.9781 0.2079
vn 0.0000 0.9945 0.1045
vn 0.0000 1.0000 -0.0000
vn 0.0000 0.9945 -0.1045
vn 0.0000 0.9781 -0.2079
vn 0.0000 0.9511 -0.3090
vn 0.0000 0.9135 -0.4067
vn 0.0000 0.8660 -0.5000
vn 0.0000 0.8090 -0.5878
vn 0.0000 0.7431 -0.6691
vn 0.0000 0.6691 -0.7431
vn 0.0000 0.5878 -0.8090
vn 0.0000 0.5000 -0.8660
vn 0.0000 0.4067 -0.9135
vn 0.0000 0.3090 -0.9511
vn 0.0000 0.2079 -0.9781
vn 0.0000 0.1045 -0.9945
vn 0.0000 -0.0000 -1.0000
vn 0.0000 -0.1045 -0.9945
vn 0.0000 -0.2079 -0.9781
vn 0.0000 -0.3090 -0.9511
vn 0.0000 -0.4067 -0.9135
vn 0.0000 -0.5000 -0.8660
vn 0.0000 -0.5878 -0.8090
vn 0.0000 -0.6691 -0.7431
vn 0.0000 -0.7431 -0.6691
vn 0.0000 -0.8090 -0.5878
vn 0.0000 -0.8660 -0.5000
vn 0.0000 -0.9135 -0.4067
vn 0.0000 -0.9511 -0.3090
vn 0.0000 -0.9781 -0.2079
vn 0.0000 -0.9945 -0.1045
vn 0.0000 -1.0000 -0.0000
vn 0.0000 -0.9945 0.1045
vn 0.0000 -0.9781 0.2079
vn 0.0000 -0.9511 0.3090
vn 0.0000 -0.9135 0.4067
vn 0.0000 -0.8660 0.5000
vn 0.0000 -0.8090 0.5878
vn 0.0000 -0.7431 0.6691
vn 0.0000 -0.6691 0.7431
vn 0.0000 -0.5878 0.8090
vn 0.0000 -0.5000 0.8660
vn 0.0000 -0.4067 0.9135
vn 0.0000 -0.3090 0.9511
vn 0.0000 -0.2079 0.9781
vn 0.0000 -0.1045 0.9945
vn -0.0000 -0.0000 1.0000
vn 1.0000 0.0000 0.0000
vn -1.0000 -0.0000 -0.0000
usemtl blinn1SG.003
s 1
f 1/1/1 2/2/2 3/3/1
f 3/3/1 2/2/2 4/4/2
f 2/2/2 5/5/3 4/4/2
f 4/4/2 5/5/3 6/6/3
f 5/5/3 7/7/4 6/6/3
f 6/6/3 7/7/4 8/8/4
f 7/7/4 9/9/5 8/8/4
f 8/8/4 9/9/5 10/10/5
f 9/9/5 11/11/6 10/10/5
f 10/10/5 11/11/6 12/12/6
f 11/11/6 13/13/7 12/12/6
f 12/12/6 13/13/7 14/14/7
f 13/13/7 15/15/8 14/14/7
f 14/14/7 15/15/8 16/16/8
f 15/15/8 17/17/9 16/16/8
f 16/16/8 17/17/9 18/18/9
f 17/17/9 19/19/10 18/18/9
f 18/18/9 19/19/10 20/20/10
f 19/21/10 21/22/11 20/23/10
f 20/23/10 21/22/11 22/24/11
f 21/22/11 23/25/12 22/24/11
f 22/24/11 23/25/12 24/26/12
f 23/25/12 25/27/13 24/26/12
f 24/26/12 25/27/13 26/28/13
f 25/27/13 27/29/14 26/28/13
f 26/28/13 27/29/14 28/30/14
f 27/29/14 29/31/15 28/30/14
f 28/30/14 29/31/15 30/32/15
f 29/31/15 31/33/16 30/32/15
f 30/32/15 31/33/16 32/34/16
f 31/33/16 33/35/17 32/34/16
f 32/34/16 33/35/17 34/36/17
f 33/35/17 35/37/18 34/36/17
f 34/36/17 35/37/18 36/38/18
f 35/37/18 37/39/19 36/38/18
f 36/38/18 37/39/19 38/40/19
f 37/39/19 39/41/20 38/40/19
f 38/40/19 39/41/20 40/42/20
f 39/43/20 41/44/21 40/45/20
f 40/45/20 41/44/21 42/46/21
f 41/44/21 43/47/22 42/46/21
f 42/46/21 43/47/22 44/48/22
f 43/47/22 45/49/23 44/48/22
f 44/48/22 45/49/23 46/50/23
f 45/49/23 47/51/24 46/50/23
f 46/50/23 47/51/24 48/52/24
f 47/51/24 49/53/25 48/52/24
f 48/52/24 49/53/25 50/54/25
f 49/53/25 51/55/26 50/54/25
f 50/54/25 51/55/26 52/56/26
f 51/55/26 53/57/27 52/56/26
f 52/56/26 53/57/27 54/58/27
f 53/57/27 55/59/28 54/58/27
f 54/58/27 55/59/28 56/60/28
f 55/59/28 57/61/29 56/60/28
f 56/60/28 57/61/29 58/62/29
f 57/61/29 59/63/30 58/62/29
f 58/62/29 59/63/30 60/64/30
f 59/63/30 61/65/31 60/64/30
f 60/64/30 61/65/31 62/66/31
f 61/65/31 63/67/32 62/66/31
f 62/66/31 63/67/32 64/68/32
f 63/67/32 65/69/33 64/68/32
f 64/68/32 65/69/33 66/70/33
f 65/69/33 67/71/34 66/70/33
f 66/70/33 67/71/34 68/72/34
f 67/71/34 69/73/35 68/72/34
f 68/72/34 69/73/35 70/74/35
f 69/73/35 71/75/36 70/74/35
f 70/74/35 71/75/36 72/76/36
f 71/75/36 73/77/37 72/76/36
f 72/76/36 73/77/37 74/78/37
f 73/77/37 75/79/38 74/78/37
f 74/78/37 75/79/38 76/80/38
f 75/79/38 77/81/39 76/80/38
f 76/80/38 77/81/39 78/82/39
f 77/81/39 79/83/40 78/82/39
f 78/82/39 79/83/40 80/84/40
f 79/85/40 81/86/41 80/87/40
f 80/87/40 81/86/41 82/88/41
f 81/86/41 83/89/42 82/88/41
f 82/88/41 83/89/42 84/90/42
f 83/89/42 85/91/43 84/90/42
f 84/90/42 85/91/43 86/92/43
f 85/91/43 87/93/44 86/92/43
f 86/92/43 87/93/44 88/94/44
f 87/93/44 89/95/45 88/94/44
f 88/94/44 89/95/45 90/96/45
f 89/95/45 91/97/46 90/96/45
f 90/96/45 91/97/46 92/98/46
f 91/97/46 93/99/47 92/98/46
f 92/98/46 93/99/47 94/100/47
f 93/99/47 95/101/48 94/100/47
f 94/100/47 95/101/48 96/102/48
f 95/101/48 97/103/49 96/102/48
f 96/102/48 97/103/49 98/104/49
f 97/103/49 99/105/50 98/104/49
f 98/104/49 99/105/50 100/106/50
f 99/107/50 101/108/51 100/109/50
f 100/109/50 101/108/51 102/110/51
f 101/108/51 103/111/52 102/110/51
f 102/110/51 103/111/52 104/112/52
f 103/111/52 105/113/53 104/112/52
f 104/112/52 105/113/53 106/114/53
f 105/113/53 107/115/54 106/114/53
f 106/114/53 107/115/54 108/116/54
f 107/115/54 109/117/55 108/116/54
f 108/116/54 109/117/55 110/118/55
f 109/117/55 111/119/56 110/118/55
f 110/118/55 111/119/56 112/120/56
f 111/119/56 113/121/57 112/120/56
f 112/120/56 113/121/57 114/122/57
f 113/121/57 115/123/58 114/122/57
f 114/122/57 115/123/58 116/124/58
f 115/123/58 117/125/59 116/124/58
f 116/124/58 117/125/59 118/126/59
f 117/125/59 119/127/60 118/126/59
f 118/126/59 119/127/60 120/128/60
f 119/127/60 1/1/1 120/128/60
f 120/128/60 1/1/1 3/3/1
f 2/129/61 1/130/61 121/131/61
f 5/132/61 2/129/61 121/131/61
f 7/133/61 5/132/61 121/131/61
f 9/134/61 7/133/61 121/131/61
f 11/135/61 9/134/61 121/131/61
f 13/136/61 11/135/61 121/131/61
f 15/137/61 13/136/61 121/131/61
f 17/138/61 15/137/61 121/131/61
f 19/139/61 17/138/61 121/131/61
f 21/140/61 19/139/61 121/131/61
f 23/141/61 21/140/61 121/131/61
f 25/142/61 23/141/61 121/131/61
f 27/143/61 25/142/61 121/131/61
f 29/144/61 27/143/61 121/131/61
f 31/145/61 29/144/61 121/131/61
f 33/146/61 31/145/61 121/131/61
f 35/147/61 33/146/61 121/131/61
f 37/148/61 35/147/61 121/131/61
f 39/149/61 37/148/61 121/131/61
f 41/150/61 39/149/61 121/131/61
f 43/151/61 41/150/61 121/131/61
f 45/152/61 43/151/61 121/131/61
f 47/153/61 45/152/61 121/131/61
f 49/154/61 47/153/61 121/131/61
f 51/155/61 49/154/61 121/131/61
f 53/156/61 51/155/61 121/131/61
f 55/157/61 53/156/61 121/131/61
f 57/158/61 55/157/61 121/131/61
f 59/159/61 57/158/61 121/131/61
f 61/160/61 59/159/61 121/131/61
f 63/161/61 61/160/61 121/131/61
f 65/162/61 63/161/61 121/131/61
f 67/163/61 65/162/61 121/131/61
f 69/164/61 67/163/61 121/131/61
f 71/165/61 69/164/61 121/131/61
f 73/166/61 71/165/61 121/131/61
f 75/167/61 73/166/61 121/131/61
f 77/168/61 75/167/61 121/131/61
f 79/169/61 77/168/61 121/131/61
f 81/170/61 79/169/61 121/131/61
f 83/171/61 81/170/61 121/131/61
f 85/172/61 83/171/61 121/131/61
f 87/173/61 85/172/61 121/131/61
f 89/174/61 87/173/61 121/131/61
f 91/175/61 89/174/61 121/131/61
f 93/176/61 91/175/61 121/131/61
f 95/177/61 93/176/61 121/131/61
f 97/178/61 95/177/61 121/131/61
f 99/179/61 97/178/61 121/131/61
f 101/180/61 99/179/61 121/131/61
f 103/181/61 101/180/61 121/131/61
f 105/182/61 103/181/61 121/131/61
f 107/183/61 105/182/61 121/131/61
f 109/184/61 107/183/61 121/131/61
f 111/185/61 109/184/61 121/131/61
f 113/186/61 111/185/61 121/131/61
f 115/187/61 113/186/61 121/131/61
f 117/188/61 115/187/61 121/131/61
f 119/189/61 117/188/61 121/131/61
f 1/130/61 119/189/61 121/131/61
f 3/190/62 4/191/62 122/192/62
f 4/191/62 6/193/62 122/192/62
f 6/193/62 8/194/62 122/192/62
f 8/194/62 10/195/62 122/192/62
f 10/195/62 12/196/62 122/192/62
f 12/196/62 14/197/62 122/192/62
f 14/197/62 16/198/62 122/192/62
f 16/198/62 18/199/62 122/192/62
f 18/199/62 20/200/62 122/192/62
f 20/200/62 22/201/62 122/192/62
f 22/201/62 24/202/62 122/192/62
f 24/202/62 26/203/62 122/192/62
f 26/203/62 28/204/62 122/192/62
f 28/204/62 30/205/62 122/192/62
f 30/205/62 32/206/62 122/192/62
f 32/206/62 34/207/62 122/192/62
f 34/207/62 36/208/62 122/192/62
f 36/208/62 38/209/62 122/192/62
f 38/209/62 40/210/62 122/192/62
f 40/210/62 42/211/62 122/192/62
f 42/211/62 44/212/62 122/192/62
f 44/212/62 46/213/62 122/192/62
f 46/213/62 48/214/62 122/192/62
f 48/214/62 50/215/62 122/192/62
f 50/215/62 52/216/62 122/192/62
f 52/216/62 54/217/62 122/192/62
f 54/217/62 56/218/62 122/192/62
f 56/218/62 58/219/62 122/192/62
f 58/219/62 60/220/62 122/192/62
f 60/220/62 62/221/62 122/192/62
f 62/221/62 64/222/62 122/192/62
f 64/222/62 66/223/62 122/192/62
f 66/223/62 68/224/62 122/192/62
f 68/224/62 70/225/62 122/192/62
f 70/225/62 72/226/62 122/192/62
f 72/226/62 74/227/62 122/192/62
f 74/227/62 76/228/62 122/192/62
f 76/228/62 78/229/62 122/192/62
f 78/229/62 80/230/62 122/192/62
f 80/230/62 82/231/62 122/192/62
f 82/231/62 84/232/62 122/192/62
f 84/232/62 86/233/62 122/192/62
f 86/233/62 88/234/62 122/192/62
f 88/234/62 90/235/62 122/192/62
f 90/235/62 92/236/62 122/192/62
f 92/236/62 94/237/62 122/192/62
f 94/237/62 96/238/62 122/192/62
f 96/238/62 98/239/62 122/192/62
f 98/239/62 100/240/62 122/192/62
f 100/240/62 102/241/62 122/192/62
f 102/241/62 104/242/62 122/192/62
f 104/242/62 106/243/62 122/192/62
f 106/243/62 108/244/62 122/192/62
f 108/244/62 110/245/62 122/192/62
f 110/245/62 112/246/62 122/192/62
f 112/246/62 114/247/62 122/192/62
f 114/247/62 116/248/62 122/192/62
f 116/248/62 118/249/62 122/192/62
f 118/249/62 120/250/62 122/192/62
f 120/250/62 3/190/62 122/192/62
