# Blender v2.79 (sub 0) OBJ File: ''
# www.blender.org
mtllib untitled.mtl
o Cube_Cube.001
v 0.758276 0.271195 -2.270010
v 0.758276 -0.166190 -2.270010
v 0.758276 0.271195 2.134157
v 0.758276 -0.166190 2.134157
v -0.786339 0.271195 -2.270010
v -0.786339 -0.166190 -2.270010
v -0.786339 0.271195 2.134157
v -0.786339 -0.166190 2.134157
v 0.758276 0.074224 -2.073039
v 0.758276 0.030781 -2.073039
v 0.758276 0.030781 1.937186
v 0.758276 0.074224 1.937186
v 0.561305 0.074224 2.134157
v 0.561305 0.030781 2.134157
v -0.589368 0.030781 2.134157
v -0.589368 0.074224 2.134157
v -0.786339 0.074224 1.937186
v -0.786339 0.030781 1.937186
v -0.786339 0.030781 -2.073039
v -0.786339 0.074224 -2.073039
v -0.589368 0.074224 -2.270010
v -0.589368 0.030781 -2.270010
v 0.561305 0.030781 -2.270010
v 0.561305 0.074224 -2.270010
v 0.561305 0.271195 1.937186
v -0.589368 0.271195 1.937186
v -0.589368 0.271195 -2.073039
v 0.561305 0.271195 -2.073039
v -0.589368 -0.166190 1.937186
v 0.561305 -0.166190 1.937186
v 0.561305 -0.166190 -2.073039
v -0.589368 -0.166190 -2.073039
v 0.737459 -0.062549 -2.019289
v 0.737459 -0.067379 -2.019289
v 0.737459 -0.067379 1.883435
v 0.737459 -0.062549 1.883435
v 0.545798 -0.062549 2.075126
v 0.545798 -0.067379 2.075126
v -0.573860 -0.067379 2.075126
v -0.573860 -0.062549 2.075126
v -0.765522 -0.062549 1.883435
v -0.765522 -0.067379 1.883435
v -0.765522 -0.067379 -2.019289
v -0.765522 -0.062549 -2.019289
v -0.573860 -0.062549 -2.210979
v -0.573860 -0.067379 -2.210979
v 0.545798 -0.067379 -2.210979
v 0.545798 -0.062549 -2.210979
v 0.545798 -0.040646 1.883435
v -0.573860 -0.040646 1.883435
v -0.573860 -0.040646 -2.019289
v 0.545798 -0.040646 -2.019289
v -0.573860 -0.089282 1.883435
v 0.545798 -0.089282 1.883435
v 0.545798 -0.089282 -2.019289
v -0.573860 -0.089282 -2.019289
vn -1.0000 0.0000 0.0000
vn 0.0000 0.0000 -1.0000
vn 1.0000 0.0000 0.0000
vn 0.0000 0.0000 1.0000
vn 0.0000 -1.0000 0.0000
vn 0.0000 1.0000 0.0000
vn -0.9325 0.0000 -0.3611
vn 0.9782 -0.2075 0.0000
vn -0.9325 0.0000 0.3612
vn -0.9886 0.1505 0.0000
vn 0.9672 0.0000 -0.2541
vn 0.0000 -0.5154 0.8570
vn -0.9672 0.0000 -0.2541
vn 0.0000 0.3963 -0.9181
vn 0.9325 0.0000 0.3611
vn -0.9782 -0.2075 0.0000
vn 0.9325 0.0000 -0.3611
vn 0.9886 0.1505 0.0000
vn -0.9672 0.0000 0.2541
vn 0.0000 -0.5154 -0.8570
vn 0.9672 0.0000 0.2541
vn 0.0000 0.3963 0.9181
vn 0.0000 -0.1699 0.9855
vn -0.9988 -0.0497 0.0000
vn 0.0000 -0.1699 -0.9855
vn 0.9988 -0.0497 0.0000
vn 0.0000 0.5729 0.8197
vn 0.9803 0.1977 0.0000
vn 0.0000 0.5729 -0.8197
vn -0.9803 0.1977 0.0000
vn -0.9325 0.0000 0.3611
vn 0.9325 0.0000 0.3612
usemtl None
s off
f 34//1 36//1 33//1
f 38//2 40//2 37//2
f 42//3 44//3 41//3
f 46//4 48//4 45//4
f 50//5 52//5 49//5
f 54//6 56//6 53//6
f 1//1 10//1 9//1
f 2//1 11//1 10//1
f 3//1 11//1 4//1
f 1//1 12//1 3//1
f 4//2 13//2 3//2
f 8//2 14//2 4//2
f 7//2 15//2 8//2
f 3//2 16//2 7//2
f 8//3 17//3 7//3
f 6//3 18//3 8//3
f 6//3 20//3 19//3
f 5//3 17//3 20//3
f 6//4 21//4 5//4
f 2//4 22//4 6//4
f 1//4 23//4 2//4
f 5//4 24//4 1//4
f 3//5 26//5 25//5
f 5//5 26//5 7//5
f 1//5 27//5 5//5
f 3//5 28//5 1//5
f 8//6 30//6 29//6
f 2//6 30//6 4//6
f 6//6 31//6 2//6
f 8//6 32//6 6//6
f 10//7 33//7 9//7
f 10//8 35//8 34//8
f 11//9 36//9 35//9
f 12//10 33//10 36//10
f 14//11 37//11 13//11
f 15//12 38//12 14//12
f 15//13 40//13 39//13
f 13//14 40//14 16//14
f 18//15 41//15 17//15
f 19//16 42//16 18//16
f 19//17 44//17 43//17
f 17//18 44//18 20//18
f 22//19 45//19 21//19
f 23//20 46//20 22//20
f 23//21 48//21 47//21
f 21//22 48//22 24//22
f 26//23 49//23 25//23
f 26//24 51//24 50//24
f 28//25 51//25 27//25
f 28//26 49//26 52//26
f 30//27 53//27 29//27
f 31//28 54//28 30//28
f 32//29 55//29 31//29
f 29//30 56//30 32//30
f 34//1 35//1 36//1
f 38//2 39//2 40//2
f 42//3 43//3 44//3
f 46//4 47//4 48//4
f 50//5 51//5 52//5
f 54//6 55//6 56//6
f 1//1 2//1 10//1
f 2//1 4//1 11//1
f 3//1 12//1 11//1
f 1//1 9//1 12//1
f 4//2 14//2 13//2
f 8//2 15//2 14//2
f 7//2 16//2 15//2
f 3//2 13//2 16//2
f 8//3 18//3 17//3
f 6//3 19//3 18//3
f 6//3 5//3 20//3
f 5//3 7//3 17//3
f 6//4 22//4 21//4
f 2//4 23//4 22//4
f 1//4 24//4 23//4
f 5//4 21//4 24//4
f 3//5 7//5 26//5
f 5//5 27//5 26//5
f 1//5 28//5 27//5
f 3//5 25//5 28//5
f 8//6 4//6 30//6
f 2//6 31//6 30//6
f 6//6 32//6 31//6
f 8//6 29//6 32//6
f 10//7 34//7 33//7
f 10//8 11//8 35//8
f 11//31 12//31 36//31
f 12//10 9//10 33//10
f 14//11 38//11 37//11
f 15//12 39//12 38//12
f 15//13 16//13 40//13
f 13//14 37//14 40//14
f 18//32 42//32 41//32
f 19//16 43//16 42//16
f 19//17 20//17 44//17
f 17//18 41//18 44//18
f 22//19 46//19 45//19
f 23//20 47//20 46//20
f 23//21 24//21 48//21
f 21//22 45//22 48//22
f 26//23 50//23 49//23
f 26//24 27//24 51//24
f 28//25 52//25 51//25
f 28//26 25//26 49//26
f 30//27 54//27 53//27
f 31//28 55//28 54//28
f 32//29 56//29 55//29
f 29//30 53//30 56//30
